<?xml version="1.0" encoding="utf-8"?>
<!-- Generator: Adobe Illustrator 19.2.1, SVG Export Plug-In . SVG Version: 6.00 Build 0)  -->
<svg version="1.1" id="Content" xmlns="http://www.w3.org/2000/svg" xmlns:xlink="http://www.w3.org/1999/xlink" x="0px" y="0px"
	 viewBox="0 0 352.1 15" style="enable-background:new 0 0 352.1 15;" xml:space="preserve">
<style type="text/css">
	.st0{fill:#FFFFFF;}
</style>
<g>
	<g>
		<g>
			<g>
				<path class="st0" d="M6.4,12.9c-2.2,0-4.2-1.7-4.2-6c0-4.5,2.2-6,4.2-6c2,0,4.2,1.6,4.2,6C10.6,11.1,8.6,12.9,6.4,12.9
					 M6.6,13.6c3.5,0,6.4-2.6,6.4-6.7c0-4.5-3.2-6.8-6.4-6.8c-3.2,0-6.4,2.3-6.4,6.8C0.2,11,3,13.6,6.6,13.6"/>
			</g>
			<g>
				<path class="st0" d="M17.3,3.7c0-0.5,0.2-0.6,0.8-0.6c0.9,0,3.7,0,3.7,2.4C21.8,8,19.2,8,18.5,8c-0.4,0-0.8,0-1.2,0V3.7z
					 M13.8,2.8c1.4,0.1,1.6,0.3,1.6,1.5v7.2c0,1.2,0,1.6-1.6,1.7v0.3h5.5v-0.3c-1.5,0-1.8-0.3-1.8-1.5v-3c0.5,0,0.8,0,1.3,0
					c2.1,0,3.3-0.3,4.1-1C23.2,7.5,24,6.8,24,5.5c0-2.1-2.4-3-5.1-3h-5.2V2.8z"/>
			</g>
			<g>
				<path class="st0" d="M34.9,13.5H24.3v-0.3c1.3-0.1,1.7-0.2,1.7-1.5V4.3c0-1.3-0.5-1.4-1.7-1.5V2.5h10.4l0.1,2.4h-0.5
					c-0.3-1.5-0.8-1.7-3-1.7h-2.6c-0.4,0-0.6,0-0.6,0.6v3.7h3c1.7,0,1.9-0.4,2.1-1.6h0.5v3.9h-0.5c-0.2-1.3-0.5-1.6-2.1-1.6l-3,0
					v4.1c0,0.7,0,0.7,2.9,0.7c2.4,0,3.4-0.5,4.3-2.2h0.5L34.9,13.5z"/>
			</g>
			<g>
				<path class="st0" d="M49.7,2.8c-1.2,0.1-1.9,0.2-1.9,2.1v8.7h-0.3L39,4.6h0V11c0,1.7,0.4,2.1,1.8,2.1v0.3h-4.6v-0.3
					c1.5-0.1,1.9-0.3,1.9-2.1V3.7c-0.8-0.8-1.1-0.9-1.9-0.9V2.5h3.3l7.5,8h0V4.9c0-1.9-0.5-2-1.9-2.1V2.5h4.6V2.8z"/>
			</g>
			<g>
				<path class="st0" d="M59.8,13.5h-6.2v-0.3c1.9-0.1,2-0.6,2.1-2.1V1.3h-1.5c-2.3,0-2.9,0.4-3.4,2.7h-0.5l0.1-3.5h12.4L63,4h-0.5
					c-0.4-2.3-1-2.7-3.4-2.7h-1.4v10c0,1.4,0.3,1.8,2,1.9V13.5z"/>
			</g>
			<g>
				<path class="st0" d="M74.2,13.5H63.6v-0.3c1.3-0.1,1.7-0.2,1.7-1.5V4.3c0-1.3-0.5-1.4-1.7-1.5V2.5H74l0.1,2.4h-0.5
					c-0.3-1.5-0.8-1.7-3-1.7H68c-0.4,0-0.6,0-0.6,0.6v3.7h3c1.7,0,1.9-0.4,2.2-1.6h0.4v3.9h-0.4c-0.2-1.3-0.5-1.6-2.2-1.6l-3,0v4.1
					c0,0.7,0,0.7,2.9,0.7c2.4,0,3.4-0.5,4.3-2.2h0.6L74.2,13.5z"/>
			</g>
			<g>
				<path class="st0" d="M88.6,2.8c-1,0.1-1.5,0.1-2.9,1.6l-2.9,3l3.8,4.6c0.8,0.9,1.2,1.1,2.2,1.2v0.3H83v-0.3
					c1-0.1,1.5-0.1,1.5-0.6c0-0.3-0.7-1.2-1-1.6l-1.9-2.3l-2.3,2.5c-0.4,0.4-1,1.1-1,1.4c0,0.5,0.7,0.6,1.5,0.6v0.3h-4.6v-0.3
					c1.1-0.1,1.3-0.3,2.8-1.9l3.1-3.2L79,5.4c-2-2.5-2.4-2.5-3.5-2.6V2.5h5.9v0.3c-1,0-1.5,0-1.5,0.5c0,0.3,0.4,0.9,1.7,2.5l0.8,1
					l2.2-2.3C85,4,85.3,3.7,85.3,3.4c0-0.5-0.7-0.5-1.4-0.5V2.5h4.7V2.8z"/>
			</g>
			<g>
				<path class="st0" d="M97.5,13.5h-5.7v-0.3c1.8-0.1,1.8-0.5,1.8-1.7V3.2h-0.7c-2.2,0-2.7,0.3-3.1,2.1h-0.5l0.1-2.8h10.4l0.1,2.8
					h-0.5c-0.4-1.8-1-2.1-3.1-2.1h-0.7v8.5c0,1.1,0.2,1.4,1.9,1.5V13.5z"/>
			</g>
		</g>
		<g>
			<path class="st0" d="M102.1,0.5v0.2h-0.6v1.6h-0.3V0.7h-0.6V0.5H102.1z"/>
			<path class="st0" d="M102.3,0.5h0.4l0.5,1.6l0.5-1.6h0.4v1.8h-0.2V1.3c0,0,0-0.1,0-0.2c0-0.1,0-0.2,0-0.3l-0.5,1.6h-0.2l-0.5-1.6
				v0.1c0,0,0,0.1,0,0.2c0,0.1,0,0.2,0,0.2v1.1h-0.2V0.5z"/>
		</g>
	</g>
	<g>
		<path class="st0" d="M127.5,1v2h-5.9v3.7h4.6v1.9h-4.6v3.8h5.9v2h-8.4V1H127.5z"/>
		<path class="st0" d="M131.6,1c0.1,0,0.1,0,0.2,0.1c0.1,0,0.1,0.1,0.2,0.1c0.1,0.1,0.1,0.1,0.2,0.2l7,8.9c0-0.2,0-0.4-0.1-0.6
			c0-0.2,0-0.4,0-0.6V1h2.2v13.3H140c-0.2,0-0.4,0-0.5-0.1s-0.3-0.2-0.4-0.3l-7-8.9c0,0.2,0,0.4,0,0.6c0,0.2,0,0.4,0,0.5v8.2h-2.2V1
			h1.3C131.5,1,131.6,1,131.6,1z"/>
		<path class="st0" d="M153.8,1v2h-4v11.3h-2.5V3h-4V1H153.8z"/>
		<path class="st0" d="M164.2,1v2h-5.9v3.7h4.6v1.9h-4.6v3.8h5.9v2h-8.4V1H164.2z"/>
		<path class="st0" d="M169.4,9.1v5.2h-2.5V1h4.1c0.9,0,1.7,0.1,2.3,0.3c0.6,0.2,1.2,0.4,1.6,0.8c0.4,0.3,0.7,0.7,0.9,1.2
			c0.2,0.5,0.3,1,0.3,1.5c0,0.4-0.1,0.9-0.2,1.3c-0.1,0.4-0.3,0.8-0.6,1.1c-0.2,0.3-0.6,0.6-0.9,0.9c-0.4,0.2-0.8,0.4-1.2,0.6
			c0.3,0.2,0.6,0.4,0.8,0.8l3.3,4.9H175c-0.2,0-0.4,0-0.5-0.1c-0.2-0.1-0.3-0.2-0.4-0.4l-2.8-4.3c-0.1-0.2-0.2-0.3-0.3-0.3
			c-0.1-0.1-0.3-0.1-0.6-0.1H169.4z M169.4,7.3h1.5c0.5,0,0.9-0.1,1.2-0.2c0.3-0.1,0.6-0.3,0.9-0.5c0.2-0.2,0.4-0.4,0.5-0.7
			c0.1-0.3,0.2-0.6,0.2-0.9c0-0.7-0.2-1.2-0.7-1.6c-0.4-0.4-1.1-0.5-2-0.5h-1.6V7.3z"/>
		<path class="st0" d="M181.8,9.6v4.7h-2.5V1h4.3c0.9,0,1.7,0.1,2.3,0.3s1.2,0.5,1.6,0.9s0.7,0.8,0.9,1.3c0.2,0.5,0.3,1.1,0.3,1.7
			c0,0.6-0.1,1.2-0.3,1.8c-0.2,0.5-0.5,1-1,1.4c-0.4,0.4-1,0.7-1.6,0.9c-0.6,0.2-1.4,0.3-2.3,0.3H181.8z M181.8,7.7h1.9
			c0.5,0,0.8-0.1,1.2-0.2c0.3-0.1,0.6-0.3,0.8-0.5c0.2-0.2,0.4-0.5,0.5-0.8c0.1-0.3,0.2-0.6,0.2-1c0-0.4-0.1-0.7-0.2-1
			c-0.1-0.3-0.3-0.5-0.5-0.7c-0.2-0.2-0.5-0.4-0.8-0.5c-0.3-0.1-0.7-0.2-1.2-0.2h-1.9V7.7z"/>
		<path class="st0" d="M193.7,9.1v5.2h-2.5V1h4.1c0.9,0,1.7,0.1,2.3,0.3c0.6,0.2,1.2,0.4,1.6,0.8c0.4,0.3,0.7,0.7,0.9,1.2
			c0.2,0.5,0.3,1,0.3,1.5c0,0.4-0.1,0.9-0.2,1.3c-0.1,0.4-0.3,0.8-0.6,1.1c-0.2,0.3-0.6,0.6-0.9,0.9c-0.4,0.2-0.8,0.4-1.2,0.6
			c0.3,0.2,0.6,0.4,0.8,0.8l3.3,4.9h-2.2c-0.2,0-0.4,0-0.5-0.1c-0.2-0.1-0.3-0.2-0.4-0.4l-2.8-4.3c-0.1-0.2-0.2-0.3-0.3-0.3
			c-0.1-0.1-0.3-0.1-0.6-0.1H193.7z M193.7,7.3h1.5c0.5,0,0.9-0.1,1.2-0.2c0.3-0.1,0.6-0.3,0.9-0.5c0.2-0.2,0.4-0.4,0.5-0.7
			C198,5.6,198,5.3,198,5c0-0.7-0.2-1.2-0.7-1.6c-0.4-0.4-1.1-0.5-2-0.5h-1.6V7.3z"/>
		<path class="st0" d="M206.3,14.3h-2.5V1h2.5V14.3z"/>
		<path class="st0" d="M216.9,3.4c-0.1,0.1-0.1,0.2-0.2,0.3c-0.1,0.1-0.2,0.1-0.3,0.1c-0.1,0-0.3,0-0.4-0.1
			c-0.2-0.1-0.3-0.2-0.5-0.3c-0.2-0.1-0.5-0.2-0.7-0.3c-0.3-0.1-0.6-0.1-1-0.1c-0.3,0-0.6,0-0.9,0.1c-0.3,0.1-0.5,0.2-0.6,0.3
			c-0.2,0.1-0.3,0.3-0.4,0.5c-0.1,0.2-0.1,0.4-0.1,0.7c0,0.3,0.1,0.6,0.3,0.8c0.2,0.2,0.4,0.4,0.7,0.5c0.3,0.1,0.6,0.3,1,0.4
			c0.4,0.1,0.7,0.2,1.1,0.4c0.4,0.1,0.8,0.3,1.1,0.5c0.4,0.2,0.7,0.4,1,0.7c0.3,0.3,0.5,0.6,0.7,1c0.2,0.4,0.3,0.9,0.3,1.4
			c0,0.6-0.1,1.2-0.3,1.7c-0.2,0.5-0.5,1-0.9,1.4c-0.4,0.4-0.9,0.7-1.4,0.9c-0.6,0.2-1.2,0.3-2,0.3c-0.4,0-0.8,0-1.3-0.1
			c-0.4-0.1-0.8-0.2-1.2-0.4c-0.4-0.2-0.7-0.3-1.1-0.6s-0.6-0.5-0.9-0.7l0.7-1.2c0.1-0.1,0.1-0.2,0.2-0.2c0.1-0.1,0.2-0.1,0.3-0.1
			c0.2,0,0.3,0.1,0.5,0.2c0.2,0.1,0.4,0.3,0.6,0.4c0.2,0.2,0.5,0.3,0.9,0.4c0.3,0.1,0.7,0.2,1.2,0.2c0.7,0,1.3-0.2,1.6-0.5
			c0.4-0.3,0.6-0.8,0.6-1.4c0-0.3-0.1-0.6-0.3-0.9c-0.2-0.2-0.4-0.4-0.7-0.6c-0.3-0.2-0.6-0.3-1-0.4c-0.4-0.1-0.7-0.2-1.1-0.3
			c-0.4-0.1-0.8-0.3-1.1-0.4c-0.4-0.2-0.7-0.4-1-0.7c-0.3-0.3-0.5-0.6-0.7-1c-0.2-0.4-0.3-0.9-0.3-1.5c0-0.5,0.1-1,0.3-1.4
			c0.2-0.5,0.5-0.9,0.8-1.2c0.4-0.4,0.8-0.6,1.4-0.9c0.5-0.2,1.2-0.3,1.8-0.3c0.8,0,1.5,0.1,2.2,0.4s1.2,0.6,1.7,1L216.9,3.4z"/>
		<path class="st0" d="M228.8,1v2h-5.9v3.7h4.6v1.9h-4.6v3.8h5.9v2h-8.4V1H228.8z"/>
		<path class="st0" d="M235.1,1h2.1c0.2,0,0.4,0.1,0.5,0.2c0.1,0.1,0.2,0.2,0.3,0.4l2.3,8c0.1,0.2,0.1,0.4,0.2,0.6
			c0,0.2,0.1,0.5,0.1,0.7c0-0.3,0.1-0.5,0.2-0.7c0.1-0.2,0.1-0.4,0.2-0.6l2.6-8c0-0.1,0.1-0.3,0.3-0.4c0.1-0.1,0.3-0.2,0.5-0.2h0.7
			c0.2,0,0.4,0.1,0.5,0.2c0.1,0.1,0.2,0.2,0.3,0.4l2.6,8c0.1,0.4,0.3,0.8,0.3,1.3c0-0.2,0.1-0.5,0.1-0.7c0-0.2,0.1-0.4,0.1-0.6
			l2.3-8c0-0.2,0.1-0.3,0.3-0.4c0.1-0.1,0.3-0.2,0.5-0.2h1.9l-4.1,13.3h-2.2l-2.9-9.1c0-0.1-0.1-0.2-0.1-0.4c0-0.1-0.1-0.3-0.1-0.4
			c0,0.2-0.1,0.3-0.1,0.4c0,0.1-0.1,0.3-0.1,0.4l-2.9,9.1h-2.2L235.1,1z"/>
		<path class="st0" d="M268.1,7.6c0,1-0.2,1.9-0.5,2.7c-0.3,0.8-0.8,1.5-1.4,2.2c-0.6,0.6-1.3,1.1-2.1,1.4c-0.8,0.3-1.7,0.5-2.7,0.5
			c-1,0-1.9-0.2-2.8-0.5c-0.8-0.3-1.5-0.8-2.1-1.4c-0.6-0.6-1-1.3-1.4-2.2c-0.3-0.8-0.5-1.7-0.5-2.7s0.2-1.9,0.5-2.7
			c0.3-0.8,0.8-1.5,1.4-2.2c0.6-0.6,1.3-1.1,2.1-1.4c0.8-0.3,1.7-0.5,2.8-0.5c1,0,1.9,0.2,2.7,0.5s1.5,0.8,2.1,1.4
			c0.6,0.6,1,1.3,1.4,2.2C267.9,5.8,268.1,6.7,268.1,7.6z M265.6,7.6c0-0.7-0.1-1.4-0.3-2c-0.2-0.6-0.5-1.1-0.8-1.5
			c-0.4-0.4-0.8-0.7-1.3-0.9c-0.5-0.2-1.1-0.3-1.8-0.3s-1.2,0.1-1.8,0.3c-0.5,0.2-1,0.5-1.3,0.9c-0.4,0.4-0.6,0.9-0.8,1.5
			c-0.2,0.6-0.3,1.2-0.3,2s0.1,1.4,0.3,2c0.2,0.6,0.5,1.1,0.8,1.5c0.4,0.4,0.8,0.7,1.3,0.9c0.5,0.2,1.1,0.3,1.8,0.3s1.2-0.1,1.8-0.3
			c0.5-0.2,1-0.5,1.3-0.9c0.4-0.4,0.6-0.9,0.8-1.5C265.5,9,265.6,8.4,265.6,7.6z"/>
		<path class="st0" d="M273.1,9.1v5.2h-2.5V1h4.1c0.9,0,1.7,0.1,2.3,0.3c0.6,0.2,1.2,0.4,1.6,0.8c0.4,0.3,0.7,0.7,0.9,1.2
			c0.2,0.5,0.3,1,0.3,1.5c0,0.4-0.1,0.9-0.2,1.3c-0.1,0.4-0.3,0.8-0.6,1.1c-0.2,0.3-0.6,0.6-0.9,0.9c-0.4,0.2-0.8,0.4-1.2,0.6
			c0.3,0.2,0.6,0.4,0.8,0.8l3.3,4.9h-2.2c-0.2,0-0.4,0-0.5-0.1c-0.2-0.1-0.3-0.2-0.4-0.4l-2.8-4.3c-0.1-0.2-0.2-0.3-0.3-0.3
			c-0.1-0.1-0.3-0.1-0.6-0.1H273.1z M273.1,7.3h1.5c0.5,0,0.9-0.1,1.2-0.2c0.3-0.1,0.6-0.3,0.9-0.5c0.2-0.2,0.4-0.4,0.5-0.7
			c0.1-0.3,0.2-0.6,0.2-0.9c0-0.7-0.2-1.2-0.7-1.6c-0.4-0.4-1.1-0.5-2-0.5h-1.6V7.3z"/>
		<path class="st0" d="M285.6,12.2h5.3v2h-7.8V1h2.5V12.2z"/>
		<path class="st0" d="M304.9,7.6c0,1-0.2,1.9-0.5,2.7c-0.3,0.8-0.8,1.5-1.4,2.1c-0.6,0.6-1.3,1-2.1,1.4c-0.8,0.3-1.7,0.5-2.7,0.5
			h-5.1V1h5.1c1,0,1.9,0.2,2.7,0.5c0.8,0.3,1.5,0.8,2.1,1.4c0.6,0.6,1,1.3,1.4,2.1C304.7,5.8,304.9,6.7,304.9,7.6z M302.3,7.6
			c0-0.7-0.1-1.4-0.3-2c-0.2-0.6-0.5-1.1-0.8-1.5c-0.4-0.4-0.8-0.7-1.3-0.9c-0.5-0.2-1.1-0.3-1.8-0.3h-2.6v9.4h2.6
			c0.6,0,1.2-0.1,1.8-0.3c0.5-0.2,1-0.5,1.3-0.9c0.4-0.4,0.6-0.9,0.8-1.5C302.2,9,302.3,8.4,302.3,7.6z"/>
		<path class="st0" d="M316.4,0.8c0.6,0,1.2,0.1,1.7,0.3c0.5,0.2,0.9,0.4,1.3,0.8c0.4,0.3,0.6,0.7,0.8,1.2s0.3,1,0.3,1.6
			c0,0.5-0.1,0.9-0.2,1.4c-0.1,0.4-0.3,0.8-0.6,1.2c-0.2,0.4-0.5,0.7-0.9,1.1c-0.3,0.4-0.7,0.7-1,1.1l-3,3.1
			c0.3-0.1,0.6-0.2,0.9-0.2c0.3,0,0.6-0.1,0.8-0.1h3.4c0.2,0,0.4,0.1,0.6,0.2c0.1,0.1,0.2,0.3,0.2,0.5v1.4h-9.1v-0.8
			c0-0.2,0-0.3,0.1-0.5c0.1-0.2,0.2-0.3,0.3-0.5l4-4c0.3-0.3,0.6-0.7,0.9-1c0.3-0.3,0.5-0.6,0.7-0.9c0.2-0.3,0.3-0.6,0.4-0.9
			c0.1-0.3,0.1-0.6,0.1-1c0-0.3,0-0.6-0.1-0.8c-0.1-0.2-0.2-0.4-0.4-0.6c-0.2-0.2-0.4-0.3-0.6-0.4c-0.2-0.1-0.5-0.1-0.8-0.1
			c-0.5,0-1,0.1-1.3,0.4c-0.4,0.3-0.6,0.6-0.7,1.1c-0.1,0.2-0.2,0.4-0.3,0.5c-0.1,0.1-0.3,0.2-0.5,0.2c-0.1,0-0.2,0-0.3,0l-1.2-0.2
			c0.1-0.6,0.3-1.2,0.5-1.7c0.3-0.5,0.6-0.9,1-1.2c0.4-0.3,0.8-0.6,1.4-0.7C315.3,0.9,315.8,0.8,316.4,0.8z"/>
		<path class="st0" d="M331.8,7.6c0,1.2-0.1,2.2-0.4,3c-0.2,0.9-0.6,1.6-1,2.1c-0.4,0.6-1,1-1.6,1.2c-0.6,0.3-1.2,0.4-1.9,0.4
			c-0.7,0-1.3-0.1-1.9-0.4c-0.6-0.3-1.1-0.7-1.5-1.2c-0.4-0.6-0.8-1.3-1-2.1c-0.2-0.9-0.4-1.9-0.4-3c0-1.2,0.1-2.2,0.4-3
			c0.2-0.9,0.6-1.6,1-2.1c0.4-0.6,0.9-1,1.5-1.2c0.6-0.3,1.2-0.4,1.9-0.4c0.7,0,1.3,0.1,1.9,0.4c0.6,0.3,1.1,0.7,1.6,1.2
			c0.4,0.6,0.8,1.3,1,2.1C331.7,5.5,331.8,6.5,331.8,7.6z M329.5,7.6c0-1-0.1-1.8-0.2-2.4s-0.3-1.1-0.6-1.5s-0.5-0.6-0.8-0.8
			c-0.3-0.2-0.6-0.2-1-0.2c-0.3,0-0.6,0.1-0.9,0.2c-0.3,0.2-0.6,0.4-0.8,0.8c-0.2,0.4-0.4,0.9-0.6,1.5c-0.1,0.6-0.2,1.4-0.2,2.4
			s0.1,1.8,0.2,2.4c0.1,0.6,0.3,1.1,0.6,1.5c0.2,0.4,0.5,0.6,0.8,0.8c0.3,0.2,0.6,0.2,0.9,0.2c0.3,0,0.6-0.1,1-0.2
			c0.3-0.2,0.6-0.4,0.8-0.8c0.2-0.4,0.4-0.9,0.6-1.5S329.5,8.6,329.5,7.6z"/>
		<path class="st0" d="M334,12.6h2.7V4.8c0-0.3,0-0.6,0-0.9l-1.9,1.6c-0.1,0.1-0.2,0.1-0.2,0.1c-0.1,0-0.2,0-0.2,0
			c-0.1,0-0.2,0-0.3-0.1c-0.1-0.1-0.2-0.1-0.2-0.2l-0.7-1l4.1-3.4h1.9v11.6h2.4v1.7H334V12.6z"/>
		<path class="st0" d="M348.2,6c0.5,0,1,0.1,1.5,0.2c0.5,0.2,0.9,0.4,1.3,0.7c0.4,0.3,0.7,0.7,0.9,1.2s0.3,1.1,0.3,1.7
			c0,0.6-0.1,1.2-0.3,1.7c-0.2,0.5-0.5,1-1,1.4c-0.4,0.4-0.9,0.7-1.5,1c-0.6,0.2-1.2,0.3-1.9,0.3c-0.7,0-1.3-0.1-1.9-0.3
			c-0.6-0.2-1-0.5-1.4-1c-0.4-0.4-0.7-0.9-0.9-1.5c-0.2-0.6-0.3-1.2-0.3-1.9c0-0.6,0.1-1.3,0.4-1.9c0.3-0.7,0.6-1.3,1.2-2.1l3.2-4.3
			c0.1-0.1,0.3-0.3,0.5-0.4c0.2-0.1,0.5-0.2,0.7-0.2h2l-3.9,4.8c-0.1,0.1-0.2,0.2-0.2,0.3c-0.1,0.1-0.2,0.2-0.2,0.3
			c0.3-0.1,0.5-0.2,0.8-0.3C347.5,6,347.8,6,348.2,6z M345,10.1c0,0.4,0.1,0.7,0.2,1c0.1,0.3,0.3,0.6,0.5,0.8
			c0.2,0.2,0.4,0.4,0.7,0.5c0.3,0.1,0.6,0.2,1,0.2c0.4,0,0.7-0.1,1-0.2c0.3-0.1,0.6-0.3,0.8-0.5c0.2-0.2,0.4-0.5,0.5-0.8
			c0.1-0.3,0.2-0.6,0.2-1c0-0.4-0.1-0.7-0.2-1c-0.1-0.3-0.3-0.6-0.5-0.8c-0.2-0.2-0.5-0.4-0.8-0.5c-0.3-0.1-0.6-0.2-1-0.2
			c-0.4,0-0.7,0.1-1,0.2c-0.3,0.1-0.5,0.3-0.8,0.5c-0.2,0.2-0.4,0.5-0.5,0.8C345,9.4,345,9.8,345,10.1z"/>
	</g>
</g>
</svg>
