<?xml version="1.0" encoding="UTF-8" standalone="no"?>
<svg width="325px" height="78px" viewBox="0 0 325 78" version="1.1" xmlns="http://www.w3.org/2000/svg" xmlns:xlink="http://www.w3.org/1999/xlink">
    <!-- Generator: Sketch 44.1 (41455) - http://www.bohemiancoding.com/sketch -->
    <title>EnterpriseWorldLogo</title>
    <desc>Created with Sketch.</desc>
    <defs></defs>
    <g id="Page-1" stroke="none" stroke-width="1" fill="none" fill-rule="evenodd">
        <g id="Artboard" transform="translate(-80.000000, -74.000000)" fill-rule="nonzero" fill="#FFFFFF">
            <g id="EnterpriseWorldLogo" transform="translate(80.000000, 74.000000)">
                <path d="M23.8149718,15.570966 C23.8149718,21.1448093 20.5870056,27.1825308 11.9276836,27.1825308 C5.68841808,27.1825308 0,23.7198811 0,15.570966 C0,8.8136854 4.28926554,3.61971083 12.779661,4.08358901 C21.820904,4.5912982 23.8149718,11.556776 23.8149718,15.570966 Z M7.68248588,11.3230107 C6.91625804,12.5884427 6.53370373,14.0470212 6.58079096,15.5234824 C6.58079096,18.9423011 8.27740113,22.0396924 11.9313559,22.0396924 C15.4567797,22.0396924 17.1937853,19.1906768 17.1937853,15.8120365 C17.1937853,13.4232465 16.5988701,11.5677338 15.3576271,10.4135172 C14.3189981,9.48324696 12.9254035,9.04742312 11.5384181,9.21912223 C9.68022599,9.35061526 8.57485876,9.96790197 7.68248588,11.3230107 Z" id="Shape"></path>
                <path d="M81.7641243,6.57465135 C82.3600874,5.84183395 83.1128075,5.25038029 83.9675141,4.8433265 C85.2528821,4.33577743 86.6241179,4.07788242 88.0070621,4.08358901 C89.3217514,4.08358901 90.8090395,4.29543888 91.9548023,4.92733593 C94.2903955,6.1509516 94.8926554,8.13795734 94.8926554,11.556776 L94.8926554,26.6309906 L88.3889831,26.6309906 L88.3889831,14.2122047 C88.3889831,12.2288515 88.3449153,11.5092925 88.0915254,10.924879 C87.5810734,9.74144176 86.4353107,9.23738515 85.1536723,9.23738515 C81.7163842,9.23738515 81.7163842,11.9804758 81.7163842,14.7162613 L81.7163842,26.6236854 L75.179661,26.6236854 L75.179661,4.63147662 L81.760452,4.63147662 L81.7641243,6.57465135 Z" id="Shape"></path>
                <path d="M72.080226,20.9402646 C71.4816384,22.1967535 69.5536723,27.1825308 61.0412429,27.1825308 C54.460452,27.1825308 49.8333333,23.1646883 49.8333333,15.9581399 C49.8333333,10.6363249 52.4663842,4.08724159 61.2175141,4.08724159 C62.5322034,4.08724159 66.3587571,3.92652789 69.1974576,6.96547785 C72.0361582,10.0044278 72.2528249,14.3546555 72.3372881,16.8457178 L56.4985876,16.8457178 C56.4545198,19.5888084 58.0262712,22.3245939 61.5516949,22.3245939 C65.0771186,22.3245939 66.3477401,20.0015505 67.1556497,18.4382445 L72.080226,20.9402646 Z M65.5838983,12.7840443 C65.4553672,11.8562879 65.2864407,10.6290197 64.3536723,9.66108491 C63.4891399,8.86262203 62.3494772,8.42463406 61.169774,8.43746924 C59.9149239,8.43611782 58.7166339,8.95655955 57.8646893,9.87293478 C56.9723164,10.8445221 56.7629944,11.8562879 56.55,12.7950021 L65.5838983,12.7840443 Z" id="Shape"></path>
                <path d="M162.984746,9.20085931 L167.314407,9.20085931 L167.314407,4.63147662 L163.025141,4.63147662 L163.025141,0 L156.532486,0 L156.532486,4.63147662 L155.500565,4.63147662 L152.525989,9.19720673 L156.528814,9.19720673 L156.528814,19.6655127 C156.528814,21.7767063 156.572881,23.3400123 157.461582,24.6476374 C158.860734,26.6748216 161.324859,26.802662 163.575989,26.802662 C164.729113,26.78522 165.878805,26.6728233 167.013277,26.4666243 L167.013277,21.3968376 L164.677684,21.480847 C162.937006,21.480847 162.937006,20.3412408 162.981073,18.9897847 L162.984746,9.20085931 Z" id="Shape"></path>
                <path d="M98.1353107,0 L104.631638,0 L104.631638,4.63147662 L111.381356,4.63147662 L108.40678,9.19720673 L104.587571,9.19720673 L104.587571,18.9934372 C104.543503,20.3448934 104.543503,21.4844996 106.284181,21.4844996 L108.619774,21.4004902 L108.619774,26.4629717 C107.485303,26.6691707 106.335611,26.7815674 105.182486,26.7990094 C102.931356,26.7990094 100.470904,26.671169 99.0680791,24.6439848 C98.1757062,23.3363597 98.1353107,21.7730537 98.1353107,19.6618601 L98.1353107,0 Z" id="Shape"></path>
                <path d="M173.333333,9.20085931 L172.532768,9.20085931 L172.532768,5.30720468 L171.063842,5.30720468 L171.063842,4.63147662 L174.80226,4.63147662 L174.80226,5.30355209 L173.333333,5.30355209 L173.333333,9.20085931 Z M179.627684,9.20085931 L178.841808,9.20085931 L178.867514,6.3810644 L178.90791,5.44600287 L178.687571,6.21669811 L177.740113,9.20085931 L177.00565,9.20085931 L176.098588,6.20939295 L175.863559,5.45330804 L175.918644,6.37375923 L175.948023,9.19355414 L175.169492,9.19355414 L175.169492,4.63147662 L176.271186,4.63147662 L177.420621,8.23657711 L178.540678,4.63147662 L179.642373,4.63147662 L179.627684,9.20085931 Z" id="Shape"></path>
                <path d="M131.836158,20.9585275 L130.591243,22.868829 C129.427119,24.5672806 127.234746,27.1825308 120.958757,27.1825308 C114.377966,27.1825308 109.941808,23.1646883 109.941808,15.9581399 C109.941808,10.6363249 112.574859,4.08724159 121.325989,4.08724159 C122.640678,4.08724159 126.467232,3.92652789 129.305932,6.96547785 C132.144633,10.0044278 132.361299,14.3546555 132.445763,16.8457178 L116.636441,16.8457178 C116.592373,19.5888084 117.958475,22.3245939 121.480226,22.3245939 C125.001977,22.3245939 126.070621,20.0015505 126.878531,18.4382445 L131.836158,20.9585275 Z M125.721751,12.7840443 C125.59322,11.8562879 125.424294,10.6290197 124.491525,9.66108491 C123.626993,8.86262203 122.48733,8.42463406 121.307627,8.43746924 C120.052777,8.43611782 118.854487,8.95655955 118.002542,9.87293478 C117.110169,10.8445221 116.900847,11.8562879 116.687853,12.7950021 L125.721751,12.7840443 Z" id="Shape"></path>
                <polygon id="Shape" points="154.101412 26.6346432 145.981921 15.0559516 152.753672 4.63147662 145.317232 4.63147662 142.122316 9.55150738 138.670339 4.63147662 131.237571 4.63147662 138.54548 15.0559516 131.020904 26.6346432 138.453672 26.6346432 142.405085 20.5567432 146.668644 26.6346432"></polygon>
                <path d="M32.8011299,6.57465135 C33.4254237,5.62863208 35.4305085,4.08358901 38.6144068,4.08358901 C44.049435,4.08358901 47.8723164,8.17813577 47.8723164,15.5271349 C47.8723164,20.0453815 46.2161017,27.1825308 38.3242938,27.1825308 C35.4929379,27.1825308 33.2968927,25.6155722 32.7387006,24.6914684 L32.7387006,33.9178958 L26.220339,33.9178958 L26.220339,4.63147662 L32.8011299,4.63147662 L32.8011299,6.57465135 Z M37.2079096,9.16068089 C35.8912173,9.15492621 34.6487976,9.76670742 33.8550847,10.8116489 C32.9223164,11.9512551 32.4963277,13.7337162 32.4963277,15.6440176 C32.4963277,18.2373523 33.2601695,19.8079635 34.0680791,20.7138043 C34.8166321,21.5470756 35.8825444,22.0294598 37.0059322,22.043345 C40.1898305,22.043345 41.5926554,18.7085357 41.5926554,15.4686936 C41.5926554,12.7584762 40.7847458,9.88754512 38.1112994,9.25930066 C37.8182288,9.18765129 37.5169842,9.15449596 37.2152542,9.16068089 L37.2079096,9.16068089 Z" id="Shape"></path>
                <polygon id="Shape" points="1.86186441 48.3127297 17.5573446 48.3127297 17.5573446 52.385361 6.66525424 52.385361 6.66525424 57.3857486 16.9146893 57.3857486 16.9146893 61.4876005 6.66525424 61.4876005 6.66525424 67.1308429 18.2330508 67.1308429 17.7483051 71.2034742 1.86186441 71.2034742"></polygon>
                <path d="M21.4903955,54.4709865 L25.8714689,54.4709865 L25.8714689,56.7794196 C26.4569954,55.8684618 27.2741194,55.1275513 28.240113,54.6317002 C29.1256332,54.1896887 30.1027269,53.9595482 31.0935028,53.9596247 C33.0055556,53.9596247 34.4230697,54.4563761 35.3460452,55.449879 C36.2690207,56.4433819 36.7280603,58.0079054 36.7231638,60.1434495 L36.7231638,71.2034742 L32.220904,71.2034742 L32.220904,60.7534311 C32.220904,59.5797341 31.9956685,58.7786006 31.5451977,58.3500308 C31.0536722,57.9091662 30.4068728,57.6794076 29.7457627,57.7108285 C29.2344039,57.6988885 28.7255714,57.7857191 28.2474576,57.9665094 C27.8175046,58.1430877 27.4203022,58.3900052 27.0723164,58.6970263 C26.7615785,59.0104084 26.5058679,59.3733936 26.3158192,59.770886 C26.1100836,60.1956159 26.0057712,60.6618746 26.0110169,61.1332998 L26.0110169,71.1998216 L21.4903955,71.1998216 L21.4903955,54.4709865 Z" id="Shape"></path>
                <path d="M41.6,57.9628568 L38.9559322,57.9628568 L38.9559322,54.4673339 L41.6,54.4673339 L41.6,50.0111813 L46.1132768,50.0111813 L46.1132768,54.4673339 L49.980226,54.4673339 L49.980226,57.9628568 L46.1132768,57.9628568 L46.1132768,65.6880722 C46.1132768,66.5646924 46.2956685,67.1576285 46.660452,67.4668806 C47.06028,67.7882521 47.5643993,67.9532239 48.0779661,67.9307588 C48.3846091,67.9306176 48.6910413,67.9147688 48.9960452,67.8832752 C49.3066448,67.851699 49.6138531,67.7930319 49.9141243,67.7079512 L50.560452,70.9952769 C49.9613676,71.1822709 49.346967,71.3167128 48.7242938,71.3970611 C48.1629362,71.4701724 47.5975009,71.5079908 47.0313559,71.5102912 C45.1829567,71.5102912 43.8131827,71.0719811 42.9220339,70.195361 C42.0308851,69.3187408 41.5853107,67.8443143 41.5853107,65.7720816 L41.6,57.9628568 Z" id="Shape"></path>
                <path d="M67.8680791,65.9766263 C67.5669492,67.8564896 66.8092279,69.2834325 65.5949153,70.2574549 C64.3806026,71.2314773 62.6129944,71.7184885 60.2920904,71.7184885 C57.4986817,71.7184885 55.3981168,70.9490108 53.9903955,69.4100554 C52.5826742,67.8710999 51.8788136,65.6917248 51.8788136,62.8719299 C51.8575951,61.5904537 52.0652416,60.3154045 52.4920904,59.1061157 C52.8655722,58.0621035 53.453357,57.1067989 54.2180791,56.3009311 C54.9629592,55.5297687 55.8712107,54.933344 56.8768362,54.5549959 C57.9686893,54.1494625 59.1266843,53.9488311 60.2920904,53.9632773 C62.8700565,53.9632773 64.8090395,54.7010993 66.1090395,56.1767432 C67.4090395,57.6523872 68.0590395,59.6393929 68.0590395,62.1377605 L68.0590395,63.9202215 L56.3957627,63.9202215 C56.4373823,65.2668075 56.7813559,66.3187517 57.4276836,67.0760541 C58.0740113,67.8333566 59.0410546,68.2132253 60.3288136,68.2156604 C62.1111111,68.2156604 63.1638418,67.4680982 63.4870056,65.9729737 L67.8680791,65.9766263 Z M63.7110169,60.9762387 C63.7110169,59.8220221 63.4258004,58.924704 62.8553672,58.2842842 C62.2849341,57.6438645 61.3986817,57.3236546 60.1966102,57.3236546 C59.6560124,57.3122716 59.1187416,57.4104491 58.6175141,57.6122088 C58.1845827,57.791405 57.7942574,58.0589339 57.4717514,58.3975144 C57.1546372,58.7317378 56.9052672,59.1236253 56.7372881,59.5517309 C56.5615528,60.0071993 56.4635007,60.4886531 56.4471751,60.9762387 L63.7110169,60.9762387 Z" id="Shape"></path>
                <path d="M71.4449153,54.4709865 L75.829661,54.4709865 L75.829661,56.8122929 C76.3275158,55.994211 77.0263422,55.3154794 77.860452,54.8398975 C78.6280103,54.408841 79.4945306,54.1823657 80.3759887,54.1824323 C80.7315899,54.1786048 81.0871299,54.1944572 81.4409605,54.2299159 C81.7200565,54.2615716 81.9648776,54.299315 82.1754237,54.343146 L81.6282486,58.4157773 C81.004313,58.2752942 80.3655994,58.2102944 79.7259887,58.2221903 C79.2478751,58.2198475 78.7714498,58.2787738 78.3084746,58.3975144 C77.854309,58.5173979 77.4352103,58.7427205 77.0855932,59.0549795 C76.7169047,59.370976 76.4244599,59.7654653 76.2299435,60.2091961 C76.0491258,60.6242968 75.9554047,61.071741 75.9545198,61.5241263 L75.9545198,71.2034742 L71.4449153,71.2034742 L71.4449153,54.4709865 Z" id="Shape"></path>
                <path d="M84.9480226,54.4709865 L89.3327684,54.4709865 L89.3327684,56.6844524 C90.5033065,54.9298241 92.5009582,53.899775 94.6172316,53.9596247 C96.9577213,53.9596247 98.7094162,54.7498004 99.8723164,56.3301518 C101.035217,57.9105031 101.614218,60.075268 101.609322,62.8244463 C101.62354,64.0501307 101.455237,65.2711559 101.109887,66.4478097 C100.813104,67.4672963 100.320502,68.4199185 99.659322,69.2529943 C99.0401464,70.0282013 98.2514211,70.652793 97.3531073,71.0792863 C96.3936435,71.5194626 95.3468668,71.7391781 94.2903955,71.7221411 C93.4379548,71.7192107 92.5926793,71.5671369 91.7932203,71.2728733 C90.8652067,70.8974392 90.0577045,70.2773871 89.4576271,69.4794545 L89.4576271,77.4347826 L84.9480226,77.4347826 L84.9480226,54.4709865 Z M89.4282486,62.966897 C89.4049327,63.8456599 89.4975294,64.7236716 89.7036723,65.5784947 C89.8544874,66.1746878 90.1596142,66.7212166 90.5887006,67.1637162 C90.9573025,67.513561 91.4040949,67.7714333 91.8923729,67.9161485 C92.3282774,68.0327006 92.7777156,68.0916487 93.229096,68.0914725 C93.7164617,68.0926491 94.1988964,67.994443 94.6466102,67.8029184 C95.1089396,67.6010768 95.5129821,67.2871148 95.8217514,66.8897724 C96.1879041,66.4064139 96.4560635,65.8568497 96.6112994,65.2716776 C96.8201274,64.4879037 96.9177766,63.6789426 96.9014124,62.8682773 C96.9187019,62.0367837 96.8261019,61.2066335 96.6259887,60.3991304 C96.4810469,59.816306 96.2241661,59.266856 95.8694915,58.7810357 C95.5745606,58.3856477 95.1790895,58.0755094 94.7237288,57.8825 C94.2789859,57.6996471 93.8021415,57.6065288 93.320904,57.6085562 C92.8279884,57.5976645 92.3369879,57.6730824 91.870339,57.8313638 C91.4348459,57.9966194 91.0311384,58.2350713 90.6768362,58.5363126 C90.2354156,58.9616537 89.9083822,59.4903845 89.7257062,60.0740505 C89.5009499,60.8449367 89.3981199,61.6459047 89.420904,62.4482301 L89.4282486,62.966897 Z" id="Shape"></path>
                <path d="M105.028249,54.4709865 L109.412994,54.4709865 L109.412994,56.8122929 C109.910849,55.994211 110.609675,55.3154794 111.443785,54.8398975 C112.211344,54.408841 113.077864,54.1823657 113.959322,54.1824323 C114.314923,54.1786048 114.670463,54.1944572 115.024294,54.2299159 C115.30339,54.2615716 115.548211,54.299315 115.758757,54.343146 L115.211582,58.4157773 C114.587646,58.2752942 113.948933,58.2102944 113.309322,58.2221903 C112.831208,58.2198475 112.354783,58.2787738 111.891808,58.3975144 C111.437642,58.5173979 111.018544,58.7427205 110.668927,59.0549795 C110.300238,59.370976 110.007793,59.7654653 109.813277,60.2091961 C109.632459,60.6242968 109.538738,61.071741 109.537853,61.5241263 L109.537853,71.2034742 L105.028249,71.2034742 L105.028249,54.4709865 Z" id="Shape"></path>
                <path d="M118.498305,48.3127297 L123.140113,48.3127297 L123.140113,52.3524877 L118.498305,52.3524877 L118.498305,48.3127297 Z M118.564407,54.4673339 L123.077684,54.4673339 L123.077684,71.1998216 L118.564407,71.1998216 L118.564407,54.4673339 Z" id="Shape"></path>
                <path d="M130.874011,65.8816591 C131.023352,66.8556816 131.421186,67.4973188 132.067514,67.806571 C132.79877,68.1234591 133.59105,68.2768243 134.388418,68.2558388 C135.463183,68.2558388 136.231921,68.1219107 136.694633,67.8540546 C137.155833,67.5890043 137.42511,67.0859384 137.388701,66.5573872 C137.392906,66.1417133 137.236471,65.740304 136.951695,65.4360439 C136.662806,65.1146165 136.10951,64.8905913 135.291808,64.7639684 L132.970904,64.3804471 C130.929096,64.0590197 129.408757,63.508697 128.409887,62.7294791 C127.411017,61.9502611 126.911582,60.769259 126.911582,59.1864725 C126.896935,58.4225975 127.08032,57.667843 127.444068,56.9949221 C127.809172,56.34129 128.322121,55.7810784 128.942373,55.3585644 C129.645826,54.8833423 130.425806,54.5312723 131.248588,54.3175779 C132.206939,54.0651658 133.195109,53.9423083 134.186441,53.9523195 C135.317551,53.9274099 136.446472,54.0626936 137.539266,54.3541038 C138.33539,54.5702629 139.083067,54.9346563 139.742655,55.4279635 C140.293392,55.8539232 140.735067,56.4033638 141.031638,57.0314479 C141.325628,57.6643102 141.536677,58.3321088 141.659605,59.0184537 L137.620056,59.533468 C137.490647,58.8674678 137.132312,58.2669948 136.606497,57.8350164 C136.116855,57.4721931 135.338324,57.2907814 134.270904,57.2907814 C133.767602,57.2802315 133.264777,57.3280374 132.772599,57.4332322 C132.443099,57.5014866 132.127676,57.6250017 131.839831,57.7984906 C131.635589,57.9248527 131.468402,58.1024794 131.355085,58.3135049 C131.265495,58.4813908 131.216459,58.6677268 131.211864,58.85774 C131.173773,59.3055225 131.360737,59.7430747 131.711299,60.0265669 C132.311772,60.3646287 132.975328,60.5771679 133.661299,60.6511587 L135.787571,61.0164171 C136.789293,61.1598698 137.773679,61.4046439 138.725424,61.746934 C139.4026,61.9914094 140.026032,62.3634585 140.561582,62.8427092 C141.015001,63.2682734 141.348057,63.8048496 141.527401,64.39871 C141.721171,65.0767991 141.813966,65.7794763 141.802825,66.4843355 C141.850254,67.9659759 141.177811,69.379762 139.996045,70.283023 C138.791525,71.2326948 136.933333,71.7087483 134.421469,71.7111833 C133.45382,71.7145326 132.488206,71.6227722 131.538701,71.4372395 C130.681413,71.2710705 129.861487,70.9517922 129.118644,70.4948728 C128.394696,70.0430511 127.787225,69.4288369 127.344915,68.7014541 C126.850485,67.8412802 126.579142,66.8722051 126.555367,65.8816591 L130.874011,65.8816591 Z" id="Shape"></path>
                <path d="M160.524294,65.9766263 C160.223164,67.8564896 159.465443,69.2834325 158.25113,70.2574549 C157.036817,71.2314773 155.269209,71.7184885 152.948305,71.7184885 C150.154896,71.7184885 148.054331,70.9490108 146.64661,69.4100554 C145.238889,67.8710999 144.535028,65.6917248 144.535028,62.8719299 C144.51381,61.5904537 144.721456,60.3154045 145.148305,59.1061157 C145.521787,58.0621035 146.109572,57.1067989 146.874294,56.3009311 C147.619174,55.5297687 148.527425,54.933344 149.533051,54.5549959 C150.624904,54.1494625 151.782899,53.9488311 152.948305,53.9632773 C155.526271,53.9632773 157.465254,54.7010993 158.765254,56.1767432 C160.065254,57.6523872 160.715254,59.6393929 160.715254,62.1377605 L160.715254,63.9202215 L149.051977,63.9202215 C149.093597,65.2668075 149.437571,66.3187517 150.083898,67.0760541 C150.730226,67.8333566 151.697269,68.2132253 152.985028,68.2156604 C154.767326,68.2156604 155.820056,67.4680982 156.14322,65.9729737 L160.524294,65.9766263 Z M156.367232,60.9762387 C156.367232,59.8220221 156.082015,58.924704 155.511582,58.2842842 C154.941149,57.6438645 154.054896,57.3236546 152.852825,57.3236546 C152.312227,57.3122716 151.774956,57.4104491 151.273729,57.6122088 C150.840797,57.791405 150.450472,58.0589339 150.127966,58.3975144 C149.810852,58.7317378 149.561482,59.1236253 149.393503,59.5517309 C149.217768,60.0071993 149.119715,60.4886531 149.10339,60.9762387 L156.367232,60.9762387 Z" id="Shape"></path>
                <polygon id="Shape" points="164.887006 48.3090771 170.3 48.3090771 174.005367 64.2087756 177.776836 48.4369176 182.870339 48.4369176 186.80339 64.2087756 190.284746 48.3090771 195.425989 48.3090771 189.183051 71.196169 184.50452 71.196169 180.218927 54.2700943 176.061864 71.196169 171.515537 71.196169"></polygon>
                <path d="M204.066949,71.7111833 C201.359228,71.7111833 199.264783,70.9417056 197.783616,69.4027502 C196.302448,67.8637948 195.56064,65.6625041 195.558192,62.7988782 C195.539611,61.5393718 195.740901,60.2862101 196.153107,59.0951579 C196.51362,58.0535042 197.096114,57.1016031 197.860734,56.3045837 C198.619868,55.5350644 199.538435,54.9392721 200.552542,54.5586485 C201.675674,54.139693 202.867534,53.9328267 204.066949,53.9486669 C205.27604,53.9314106 206.477789,54.1382641 207.610734,54.5586485 C209.691519,55.3264181 211.306132,56.9969153 211.99548,59.0951579 C212.397132,60.288441 212.593299,61.5406199 212.575706,62.7988782 C212.595389,64.0680093 212.394114,65.3309562 211.980791,66.5318191 C211.617611,67.5765521 211.035571,68.5326917 210.273164,69.3370037 C209.518319,70.1160836 208.598907,70.7186622 207.581356,71.1012018 C206.458156,71.5199089 205.266344,71.726767 204.066949,71.7111833 L204.066949,71.7111833 Z M204.066949,68.1206932 C205.357156,68.1206932 206.318079,67.6604676 206.949718,66.7400164 C207.581356,65.8195652 207.898399,64.5058525 207.900847,62.7988782 C207.900847,61.0943389 207.583804,59.7903664 206.949718,58.8869606 C206.315631,57.9835548 205.354708,57.534287 204.066949,57.5391571 C202.776742,57.5391571 201.814595,57.9884249 201.180508,58.8869606 C200.546422,59.7854963 200.229379,61.0894688 200.229379,62.7988782 C200.229379,64.530203 200.540301,65.8500034 201.162147,66.7582793 C201.783992,67.6665552 202.75226,68.1206932 204.066949,68.1206932 Z" id="Shape"></path>
                <path d="M215.99096,54.4673339 L220.375706,54.4673339 L220.375706,56.8086403 C220.873561,55.9905585 221.572387,55.3118269 222.406497,54.8362449 C223.174055,54.4051884 224.040576,54.1787131 224.922034,54.1787797 C225.277635,54.1749523 225.633175,54.1908046 225.987006,54.2262633 C226.266102,54.2591366 226.512147,54.2956624 226.721469,54.3394934 L226.174294,58.4121247 C225.550358,58.2716417 224.911645,58.2066418 224.272034,58.2185377 C223.79392,58.2161949 223.317495,58.2751212 222.85452,58.3938618 C222.40025,58.5134844 221.981093,58.7388385 221.631638,59.0513269 C221.263043,59.3674088 220.970615,59.7618755 220.775989,60.2055435 C220.59527,60.6206753 220.501553,61.0680991 220.500565,61.5204737 L220.500565,71.1998216 L215.99096,71.1998216 L215.99096,54.4673339 Z" id="Shape"></path>
                <polygon id="Shape" points="229.012994 48.3090771 233.526271 48.3090771 233.526271 71.196169 229.012994 71.196169"></polygon>
                <path d="M249.089548,68.9863556 C247.939143,70.731054 245.964616,71.761351 243.867514,71.7111833 C241.502542,71.7111833 239.741055,70.9197901 238.583051,69.3370037 C237.425047,67.7542173 236.844821,65.5626668 236.842373,62.7623523 C236.828751,61.5522972 236.99709,60.3470157 237.341808,59.1864725 C237.640161,58.1749142 238.127265,57.2282448 238.777684,56.3958983 C239.387873,55.6191816 240.171057,54.994 241.065537,54.5696062 C242.025001,54.12943 243.071777,53.9097144 244.128249,53.9267514 C244.980682,53.9297577 245.825945,54.0818292 246.625424,54.3760193 C247.542087,54.7412797 248.347115,55.3380295 248.961017,56.1073441 L248.961017,48.3090771 L253.474294,48.3090771 L253.474294,71.196169 L249.089548,71.196169 L249.089548,68.9863556 Z M248.983051,62.6381645 C249.005194,61.7775358 248.91258,60.9177833 248.707627,60.0813556 C248.553825,59.4906288 248.24893,58.9495485 247.822599,58.5107445 C247.47469,58.149144 247.034059,57.8889647 246.548305,57.7583121 C246.100872,57.6431743 245.640694,57.5842739 245.178531,57.5829881 C244.69577,57.5804413 244.217851,57.6787469 243.775706,57.8715422 C243.32209,58.0742421 242.924097,58.3824076 242.615254,58.7700779 C242.24678,59.246598 241.978287,59.7918765 241.825706,60.3735623 C241.618084,61.1476122 241.520432,61.9467608 241.535593,62.747742 C241.517953,63.5949201 241.610528,64.4408108 241.811017,65.2643724 C241.953728,65.8524659 242.210719,66.4071148 242.567514,66.8970775 C242.858013,67.2893387 243.246699,67.5991207 243.694915,67.7956132 C244.132996,67.9792166 244.604003,68.0724148 245.079379,68.069557 C246.048179,68.1076148 246.994682,67.7741962 247.723446,67.1381481 C248.159029,66.7010353 248.484884,66.1679531 248.674576,65.5821473 C248.89962,64.8175694 249.002475,64.022568 248.979379,63.2262305 L248.983051,62.6381645 Z" id="Shape"></path>
                <path d="M261.55339,69.4684967 L264.146045,67.1783265 C265.12533,66.3138816 266.104614,65.4543068 267.083898,64.5996021 C268.180697,63.6596705 269.14162,62.7940081 269.966667,62.0026148 C270.720206,61.2947975 271.409594,60.5223343 272.026836,59.6941817 C272.544223,59.0028947 272.962006,58.2431237 273.268079,57.4368847 C273.551895,56.6508835 273.693628,55.8211289 273.686723,54.9860008 C273.686723,53.3837339 273.268079,52.1881214 272.430791,51.3991632 C271.593503,50.6102051 270.401224,50.2145085 268.853955,50.2120734 C268.064409,50.1935818 267.276693,50.2958289 266.518362,50.5152379 C265.936228,50.690677 265.394622,50.9786437 264.924576,51.3626374 C264.486991,51.7362557 264.130827,52.1949159 263.877966,52.7104409 C263.591031,53.280275 263.345579,53.8698553 263.143503,54.474639 L261.435876,54.1093806 C261.620695,53.4109513 261.879192,52.7338999 262.207062,52.0895016 C262.553364,51.4022574 263.022491,50.7834159 263.591525,50.2632096 C264.22798,49.6946497 264.965181,49.2487606 265.765537,48.9482793 C266.781898,48.5827062 267.857997,48.4092752 268.938418,48.4369176 C269.914602,48.4202592 270.885916,48.5773578 271.806497,48.9007957 C273.381988,49.4496014 274.632429,50.6639015 275.221751,52.2173421 C275.527862,53.0147664 275.68107,53.8621713 275.673446,54.7157096 C275.680712,55.6740197 275.528075,56.626889 275.221751,57.5355045 C274.892568,58.4664915 274.431314,59.3459131 273.851977,60.1471021 C273.157405,61.1087148 272.375597,62.0049188 271.516384,62.8244463 C270.571375,63.7448975 269.454991,64.7493581 268.167232,65.8378281 C267.501318,66.3930209 266.803578,66.9859571 266.074011,67.6166366 L264.039548,69.3990976 L275.897458,69.3990976 L275.511864,71.1925164 L261.557062,71.1925164 L261.55339,69.4684967 Z" id="Shape"></path>
                <path d="M287.072316,71.7769299 C284.560452,71.7769299 282.601883,70.8418683 281.19661,68.9717453 C279.791337,67.1016222 279.091149,64.158857 279.096045,60.1434495 C279.068695,58.3859144 279.258631,56.6316983 279.661582,54.9202543 C279.963268,53.6102015 280.515589,52.3701281 281.288418,51.2676702 C281.947539,50.3503586 282.832763,49.6170551 283.85904,49.1382137 C284.906464,48.6685392 286.044654,48.4328982 287.193503,48.4478753 C288.342827,48.4279368 289.482097,48.6638012 290.527966,49.1382137 C291.529845,49.6177769 292.386321,50.3524549 293.010452,51.2676702 C293.752793,52.3794311 294.283094,53.6175791 294.574859,54.9202543 C294.965612,56.6334527 295.149304,58.386929 295.122034,60.1434495 C295.150105,61.8951784 294.966396,63.6439141 294.574859,65.3520345 C294.283091,66.6469803 293.747275,67.8752132 292.995763,68.9717453 C292.352776,69.8846131 291.480351,70.6138143 290.465537,71.0865915 C289.398586,71.5599899 288.240463,71.7956058 287.072316,71.7769299 L287.072316,71.7769299 Z M287.138418,70.045605 C288.105802,70.0774841 289.063467,69.8450389 289.907345,69.3735295 C290.681833,68.9008327 291.315643,68.2313434 291.743503,67.4340074 C292.25769,66.4632092 292.600521,65.4118267 292.757062,64.3256583 C293.16484,61.5632852 293.16484,58.7564872 292.757062,55.994114 C292.598505,54.9037685 292.255827,53.8479152 291.743503,52.8711546 C290.874807,51.1545843 289.067897,50.1112335 287.138418,50.2120734 C286.16308,50.1819949 285.198393,50.4209225 284.35113,50.9024118 C283.573183,51.3852454 282.939226,52.0662399 282.514972,52.8748072 C282.001927,53.8512677 281.659209,54.9072458 281.501412,55.9977666 C281.092529,58.7600594 281.092529,61.5670181 281.501412,64.3293109 C281.657168,65.4156603 282.000042,66.4671735 282.514972,67.43766 C282.940924,68.2363567 283.575161,68.9062974 284.35113,69.3771821 C285.201318,69.8458503 286.163219,70.0768293 287.134746,70.045605 L287.138418,70.045605 Z" id="Shape"></path>
                <polygon id="Shape" points="304.016384 51.0119893 298.441808 54.3760193 297.637571 52.9332486 304.016384 49.0542043 305.948023 49.0542043 305.948023 71.1998216 304.016384 71.1998216"></polygon>
                <path d="M314.522881,71.1998216 C315.575612,67.6519449 316.783804,64.1905127 318.147458,60.815525 C319.533967,57.3937793 321.120674,54.0556955 322.899435,50.8184024 L310.108757,50.8184024 L310.108757,49.0542043 L324.959605,49.0542043 L324.959605,50.8184024 C323.213078,54.0591819 321.63317,57.3861017 320.225989,60.7863043 C318.824161,64.179316 317.640515,67.6574961 316.682203,71.1998216 L314.522881,71.1998216 Z" id="Shape"></path>
            </g>
        </g>
    </g>
</svg>