<?xml version="1.0" encoding="utf-8"?>
<!-- Generator: Adobe Illustrator 19.1.0, SVG Export Plug-In . SVG Version: 6.00 Build 0)  -->
<!DOCTYPE svg PUBLIC "-//W3C//DTD SVG 1.1//EN" "http://www.w3.org/Graphics/SVG/1.1/DTD/svg11.dtd">
<svg version="1.1" xmlns="http://www.w3.org/2000/svg" xmlns:xlink="http://www.w3.org/1999/xlink" x="0px" y="0px"
	 viewBox="-2781 407.2 51.3 51.8" style="enable-background:new -2781 407.2 51.3 51.8;" xml:space="preserve">
<style type="text/css">
	.st0{fill:none;stroke:#FFFFFF;stroke-width:2;stroke-linecap:round;stroke-linejoin:round;stroke-miterlimit:10;}
</style>
<g id="Layer_6_1_">
	<polyline class="st0" points="-2746.8,426.1 -2730.7,421.3 -2730.7,451.2 -2746.8,456 	"/>
</g>
<g id="Layer_5">
	<polyline class="st0" points="-2751,425.4 -2746.8,426.1 -2746.8,456 -2763.9,453.2 -2763.9,423.3 	"/>
</g>
<g id="Layer_4">
	<polyline class="st0" points="-2763.9,453.2 -2780,458 -2780,428.1 -2763.9,423.3 -2759.9,423.9 	"/>
</g>
<g id="Layer_3">
	<g id="Layer_6">
		<path class="st0" d="M-2748.4,418.9l-6.8,16.4l-6.8-16.4l0,0c-0.4-1-0.7-2-0.7-3.2c0-4.1,3.4-7.5,7.5-7.5c4.1,0,7.5,3.4,7.5,7.5
			C-2747.6,416.8-2747.9,417.9-2748.4,418.9L-2748.4,418.9z"/>
	</g>
</g>
<g id="Layer_2">
	<circle class="st0" cx="-2755.1" cy="415.7" r="3.1"/>
</g>
</svg>
