<?xml version="1.0" encoding="utf-8"?>
<!-- Generator: Adobe Illustrator 19.1.0, SVG Export Plug-In . SVG Version: 6.00 Build 0)  -->
<!DOCTYPE svg PUBLIC "-//W3C//DTD SVG 1.1//EN" "http://www.w3.org/Graphics/SVG/1.1/DTD/svg11.dtd">
<svg version="1.1" id="Layer_1" xmlns="http://www.w3.org/2000/svg" xmlns:xlink="http://www.w3.org/1999/xlink" x="0px" y="0px"
	 viewBox="-2782 408.2 49.8 49.8" style="enable-background:new -2782 408.2 49.8 49.8;" xml:space="preserve">
<style type="text/css">
	.st0{fill:none;stroke:#FFFFFF;stroke-width:2;stroke-linecap:round;stroke-linejoin:round;stroke-miterlimit:10;}
</style>
<g id="Layer_14">
	<circle class="st0" cx="-2757.1" cy="433.1" r="23.9"/>
</g>
<g id="Layer_13">
	<circle class="st0" cx="-2764.1" cy="441.7" r="3.2"/>
</g>
<g id="Layer_12">
	<circle class="st0" cx="-2745.8" cy="433.4" r="3.2"/>
</g>
<g id="Layer_11">
	<circle class="st0" cx="-2761.7" cy="423.1" r="3.2"/>
</g>
<path class="st0" d="M-2763.9,444.9c0.6,4.1,1.9,8.3,4.2,12 M-2762.6,426.1c-0.9,3.7-1.5,8.2-1.6,12.4 M-2756.4,409.2
	c0,0-2.4,4.4-4.5,10.8"/>
<path class="st0" d="M-2743.6,435.8c2.6,3.1,4.8,6.8,6.1,11 M-2758.8,424.5c3.5,1.7,7.4,4,10.7,6.7 M-2776.4,419
	c0,0,5.2,0.8,11.7,3.1"/>
<path class="st0" d="M-2743.4,431.4c2.6-2.4,5.3-5.3,7.8-8.8 M-2761,441.2c3.9-1.1,8.4-3.1,12.6-5.9 M-2779.2,442.3
	c0,0,5.1,1,12,0.2"/>
</svg>
