<?xml version="1.0" encoding="utf-8"?>
<!-- Generator: Adobe Illustrator 19.2.1, SVG Export Plug-In . SVG Version: 6.00 Build 0)  -->
<svg version="1.1" id="Layer_1" xmlns="http://www.w3.org/2000/svg" xmlns:xlink="http://www.w3.org/1999/xlink" x="0px" y="0px"
	 viewBox="0 0 49.1 55.5" style="enable-background:new 0 0 49.1 55.5;" xml:space="preserve">
<style type="text/css">
	.st0{fill:#FFFFFF;}
</style>
<g>
	<g id="XMLID_350_">
		<path id="XMLID_351_" class="st0" d="M24.6,1.1L0.9,14.4v26.7l23.7,13.4l23.7-13.4V14.4L24.6,1.1z M45.9,39.8l-21.3,12l-21.3-12
			V15.7l21.3-12l21.3,12V39.8z"/>
	</g>
	<path class="st0" d="M39.5,19.4c-0.3,0-0.6,0.1-0.8,0.3c-0.2,0.2-0.4,0.4-0.4,0.6l-2.3,8.9c-0.1,0.3-0.1,0.6-0.2,0.9
		c-0.1,0.3-0.1,0.6-0.2,1c-0.1-0.4-0.2-0.7-0.2-1c-0.1-0.3-0.2-0.6-0.3-0.9l-2.7-8.9c-0.1-0.3-0.2-0.5-0.5-0.6
		c-0.2-0.2-0.5-0.2-0.9-0.2h-1.2c-0.3,0-0.6,0.1-0.8,0.3c-0.2,0.2-0.4,0.4-0.5,0.6l-2.8,8.9c-0.1,0.3-0.2,0.6-0.3,0.9
		c-0.1,0.3-0.2,0.7-0.3,1c0-0.4-0.1-0.7-0.2-1c-0.1-0.3-0.2-0.6-0.2-0.9l-2.3-8.9c-0.1-0.3-0.2-0.5-0.5-0.6
		c-0.2-0.1-0.4-0.2-0.6-0.2l-13.5,0v17.1h12.8l-0.9-2.8c-0.1-0.2-0.2-0.3-0.4-0.3h-7.5v-4.1h6.6l-0.8-2.6c-0.1-0.2-0.2-0.3-0.4-0.3
		h-5.4v-4h6.8L23,36.5h3.6l3.3-10.6c0.1-0.2,0.1-0.3,0.2-0.5c0.1-0.2,0.1-0.4,0.2-0.6c0.1,0.2,0.1,0.4,0.2,0.6
		c0.1,0.2,0.1,0.4,0.2,0.5l3.2,10.6h3.6l5.3-17.1H39.5z"/>
</g>
</svg>
