<?xml version="1.0" encoding="utf-8"?>
<!-- Generator: Adobe Illustrator 19.1.0, SVG Export Plug-In . SVG Version: 6.00 Build 0)  -->
<!DOCTYPE svg PUBLIC "-//W3C//DTD SVG 1.1//EN" "http://www.w3.org/Graphics/SVG/1.1/DTD/svg11.dtd">
<svg version="1.1" xmlns="http://www.w3.org/2000/svg" xmlns:xlink="http://www.w3.org/1999/xlink" x="0px" y="0px"
	 viewBox="0 0 45.6 50.2" style="enable-background:new 0 0 45.6 50.2;" xml:space="preserve">
<style type="text/css">
	.st0{fill:none;stroke:#FFFFFF;stroke-width:2;stroke-linecap:round;stroke-linejoin:round;stroke-miterlimit:10;}
</style>
<g id="Layer_5">
	<line class="st0" x1="1" y1="1" x2="1" y2="49.2"/>
</g>
<g id="Layer_4">
	<path class="st0" d="M44.6,27.4c-13-2.6-25,3.5-37.9,1c0-9.6,0-14.5,0-24.1c13,2.6,25-3.5,37.9-1C44.6,13,44.6,17.8,44.6,27.4z"/>
</g>
<g id="Layer_3">
	<path class="st0" d="M29.3,21.1c-2.9,0.5-4.4,0.8-7.3,1.3c0-4.8,0-7.2,0-11.9c2.9-0.4,4.4-0.8,7.3-1.3"/>
</g>
<g id="Layer_2">
	<path class="st0" d="M22.1,16.1c2.3-0.3,3.3-0.6,5.5-1"/>
</g>
</svg>
