<?xml version="1.0" encoding="utf-8"?>
<!-- Generator: Adobe Illustrator 19.1.0, SVG Export Plug-In . SVG Version: 6.00 Build 0)  -->
<!DOCTYPE svg PUBLIC "-//W3C//DTD SVG 1.1//EN" "http://www.w3.org/Graphics/SVG/1.1/DTD/svg11.dtd">
<svg version="1.1" xmlns="http://www.w3.org/2000/svg" xmlns:xlink="http://www.w3.org/1999/xlink" x="0px" y="0px"
	 viewBox="0 0 59.7 48.8" style="enable-background:new 0 0 59.7 48.8;" xml:space="preserve">
<style type="text/css">
	.st0{fill:none;stroke:#FFFFFF;stroke-width:2;stroke-linecap:round;stroke-linejoin:round;stroke-miterlimit:10;}
</style>
<g id="Layer_3">
	<g>
		<path class="st0" d="M34,10.6C32.3,5.1,25.7,1,17.7,1C8.5,1,1,6.6,1,13.5c0,3.6,1.7,6.6,5,8.9l-1.5,7.8c-0.1,0.8,0.2,1,0.8,0.4
			l6.1-5.6c2.3,0.9,3.6,0.9,6.3,0.9"/>
	</g>
</g>
<g id="Layer_2">
	<path class="st0" d="M58.7,25.6c0,4.5-2.6,8.5-6.7,11.3l2.7,11l-8.4-8.2c-2.8,1.1-4.8,1.2-8.1,1.2c-11.2,0-20.3-6.6-20.5-14.9
		c0-0.1,0-0.2,0-0.3c0-7.4,7-13.5,16.3-14.9c1.4-0.2,2.8-0.3,4.2-0.3C49.6,10.3,58.7,17.1,58.7,25.6z"/>
</g>
</svg>
