<?xml version="1.0" encoding="utf-8"?>
<!-- Generator: Adobe Illustrator 19.1.0, SVG Export Plug-In . SVG Version: 6.00 Build 0)  -->
<!DOCTYPE svg PUBLIC "-//W3C//DTD SVG 1.1//EN" "http://www.w3.org/Graphics/SVG/1.1/DTD/svg11.dtd">
<svg version="1.1" xmlns="http://www.w3.org/2000/svg" xmlns:xlink="http://www.w3.org/1999/xlink" x="0px" y="0px"
	 viewBox="-2779 406.6 55.6 52.4" style="enable-background:new -2779 406.6 55.6 52.4;" xml:space="preserve">
<style type="text/css">
	.st0{fill:none;stroke:#FFFFFF;stroke-width:2;stroke-linecap:round;stroke-linejoin:round;stroke-miterlimit:10;}
</style>
<g id="Layer_14">
	<line class="st0" x1="-2776.2" y1="426.1" x2="-2726.2" y2="426.1"/>
</g>
<g id="Layer_13">
	<line class="st0" x1="-2765.5" y1="418.9" x2="-2765.5" y2="409.3"/>
</g>
<g id="Layer_12">
	<line class="st0" x1="-2736.9" y1="418.9" x2="-2736.9" y2="409.3"/>
</g>
<g id="Layer_11">
	<line class="st0" x1="-2777.2" y1="414.3" x2="-2725.2" y2="414.3"/>
</g>
<g id="Layer_10">
	<line class="st0" x1="-2725.2" y1="414.3" x2="-2725.2" y2="457.3"/>
</g>
<g id="Layer_9">
	<line class="st0" x1="-2725.2" y1="457.3" x2="-2777.2" y2="457.3"/>
</g>
<g id="Layer_8">
	<line class="st0" x1="-2777.2" y1="457.3" x2="-2777.2" y2="414.3"/>
</g>
<g id="Layer_7">
	<g>
		<line class="st0" x1="-2770.5" y1="431.8" x2="-2761.7" y2="431.8"/>
		<line class="st0" x1="-2761.7" y1="431.8" x2="-2761.7" y2="439.4"/>
		<line class="st0" x1="-2761.7" y1="439.4" x2="-2770.5" y2="439.4"/>
		<line class="st0" x1="-2770.5" y1="439.4" x2="-2770.5" y2="431.8"/>
	</g>
</g>
<g id="Layer_6">
	<g>
		<line class="st0" x1="-2755.6" y1="431.8" x2="-2746.8" y2="431.8"/>
		<line class="st0" x1="-2746.8" y1="431.8" x2="-2746.8" y2="439.4"/>
		<line class="st0" x1="-2746.8" y1="439.4" x2="-2755.6" y2="439.4"/>
		<line class="st0" x1="-2755.6" y1="439.4" x2="-2755.6" y2="431.8"/>
	</g>
</g>
<g id="Layer_5">
	<g>
		<line class="st0" x1="-2740.6" y1="431.8" x2="-2731.9" y2="431.8"/>
		<line class="st0" x1="-2731.9" y1="431.8" x2="-2731.9" y2="439.4"/>
		<line class="st0" x1="-2731.9" y1="439.4" x2="-2740.7" y2="439.4"/>
		<line class="st0" x1="-2740.7" y1="439.4" x2="-2740.7" y2="431.8"/>
	</g>
</g>
<g id="Layer_4">
	<g>
		<line class="st0" x1="-2770.5" y1="443.8" x2="-2761.7" y2="443.8"/>
		<line class="st0" x1="-2761.7" y1="443.8" x2="-2761.7" y2="451.4"/>
		<line class="st0" x1="-2761.7" y1="451.4" x2="-2770.5" y2="451.4"/>
		<line class="st0" x1="-2770.5" y1="451.4" x2="-2770.5" y2="443.8"/>
	</g>
</g>
<g id="Layer_3">
	<g>
		<line class="st0" x1="-2755.6" y1="443.8" x2="-2746.8" y2="443.8"/>
		<line class="st0" x1="-2746.8" y1="443.8" x2="-2746.8" y2="451.4"/>
		<line class="st0" x1="-2746.8" y1="451.4" x2="-2755.6" y2="451.4"/>
		<line class="st0" x1="-2755.6" y1="451.4" x2="-2755.6" y2="443.8"/>
	</g>
</g>
<g id="Layer_2">
	<g>
		<line class="st0" x1="-2740.6" y1="443.8" x2="-2731.9" y2="443.8"/>
		<line class="st0" x1="-2731.9" y1="443.8" x2="-2731.9" y2="451.4"/>
		<line class="st0" x1="-2731.9" y1="451.4" x2="-2740.7" y2="451.4"/>
		<line class="st0" x1="-2740.7" y1="451.4" x2="-2740.7" y2="443.8"/>
	</g>
</g>
</svg>
