<?xml version="1.0" encoding="utf-8"?>
<!-- Generator: Adobe Illustrator 19.1.0, SVG Export Plug-In . SVG Version: 6.00 Build 0)  -->
<!DOCTYPE svg PUBLIC "-//W3C//DTD SVG 1.1//EN" "http://www.w3.org/Graphics/SVG/1.1/DTD/svg11.dtd">
<svg version="1.1" id="Backgrounds" xmlns="http://www.w3.org/2000/svg" xmlns:xlink="http://www.w3.org/1999/xlink" x="0px"
	 y="0px" viewBox="553 3.3 1358.8 138.7" style="enable-background:new 553 3.3 1358.8 138.7;" xml:space="preserve">
<style type="text/css">
	.st0{fill:#00A4E4;}
	.st1{fill:#F0B311;}
	.st2{fill:#A05FA6;}
	.st3{fill:#FFFFFF;}
</style>
<g>
	<path class="st0" d="M898,158.2c-0.1,0.3-0.3,0.5-0.5,0.6c-0.2,0.1-0.4,0.2-0.7,0.2s-0.6-0.1-0.9-0.3c-0.3-0.2-0.7-0.4-1.2-0.7
		s-1-0.5-1.6-0.7s-1.3-0.3-2.1-0.3c-0.7,0-1.4,0.1-1.9,0.3s-1,0.4-1.4,0.7c-0.4,0.3-0.7,0.7-0.8,1.1c-0.2,0.4-0.3,0.9-0.3,1.5
		c0,0.7,0.2,1.2,0.6,1.7c0.4,0.4,0.9,0.8,1.5,1.2c0.6,0.3,1.3,0.6,2.1,0.9c0.8,0.3,1.6,0.5,2.4,0.8s1.6,0.6,2.4,1
		c0.8,0.4,1.5,0.9,2.1,1.4c0.6,0.6,1.1,1.3,1.5,2.1c0.4,0.8,0.6,1.8,0.6,3c0,1.3-0.2,2.5-0.7,3.6c-0.4,1.1-1.1,2.1-1.9,3
		c-0.9,0.8-1.9,1.5-3.1,2c-1.2,0.5-2.6,0.7-4.2,0.7c-0.9,0-1.8-0.1-2.7-0.3c-0.9-0.2-1.7-0.4-2.6-0.8c-0.8-0.3-1.6-0.7-2.3-1.2
		s-1.3-1-1.9-1.6l1.5-2.6c0.1-0.2,0.3-0.3,0.5-0.5c0.2-0.1,0.4-0.2,0.7-0.2c0.3,0,0.7,0.1,1.1,0.4c0.4,0.3,0.8,0.6,1.4,0.9
		c0.5,0.3,1.1,0.6,1.8,0.9c0.7,0.3,1.6,0.4,2.6,0.4c1.5,0,2.7-0.4,3.5-1.1c0.8-0.7,1.3-1.8,1.3-3.1c0-0.8-0.2-1.4-0.6-1.8
		c-0.4-0.5-0.9-0.9-1.5-1.2c-0.6-0.3-1.3-0.6-2.1-0.8c-0.8-0.2-1.6-0.5-2.4-0.7c-0.8-0.3-1.6-0.6-2.4-1c-0.8-0.4-1.5-0.9-2.1-1.4
		c-0.6-0.6-1.1-1.3-1.5-2.2c-0.4-0.9-0.6-2-0.6-3.3c0-1,0.2-2.1,0.6-3.1c0.4-1,1-1.9,1.8-2.6c0.8-0.8,1.8-1.4,3-1.8
		c1.2-0.5,2.5-0.7,4-0.7c1.7,0,3.3,0.3,4.7,0.8s2.6,1.3,3.7,2.2L898,158.2z"/>
	<path class="st0" d="M909.9,181.7h-5.4V153h5.4V181.7z"/>
	<path class="st0" d="M931.4,171.1c0.2,0.5,0.4,0.9,0.6,1.4c0.2-0.5,0.4-0.9,0.6-1.4c0.2-0.5,0.4-0.9,0.6-1.3l8.5-15.9
		c0.1-0.2,0.2-0.4,0.3-0.5c0.1-0.1,0.2-0.2,0.4-0.3c0.1-0.1,0.3-0.1,0.5-0.1c0.2,0,0.4,0,0.6,0h4v28.7h-4.7v-18.6c0-0.3,0-0.7,0-1.1
		c0-0.4,0-0.8,0.1-1.3l-8.7,16.3c-0.2,0.4-0.5,0.7-0.8,0.9c-0.3,0.2-0.7,0.3-1.1,0.3h-0.7c-0.4,0-0.8-0.1-1.1-0.3
		c-0.3-0.2-0.6-0.5-0.8-0.9l-8.8-16.3c0.1,0.4,0.1,0.9,0.1,1.3c0,0.4,0,0.8,0,1.2v18.6h-4.7v-28.7h4c0.2,0,0.4,0,0.6,0
		c0.2,0,0.3,0,0.5,0.1c0.1,0.1,0.3,0.1,0.4,0.3c0.1,0.1,0.2,0.3,0.3,0.5l8.6,16C931,170.2,931.2,170.7,931.4,171.1z"/>
	<path class="st0" d="M958.8,171.6v10.1h-5.3V153h9.4c1.9,0,3.6,0.2,5,0.7c1.4,0.5,2.6,1.1,3.5,1.9c0.9,0.8,1.6,1.8,2,2.9
		c0.4,1.1,0.7,2.4,0.7,3.7c0,1.4-0.2,2.7-0.7,3.8c-0.5,1.2-1.2,2.2-2.1,3s-2.1,1.5-3.5,1.9c-1.4,0.5-3,0.7-4.9,0.7L958.8,171.6
		L958.8,171.6z M958.8,167.4h4c1,0,1.8-0.1,2.6-0.4c0.7-0.2,1.3-0.6,1.8-1.1s0.8-1,1.1-1.7c0.2-0.7,0.4-1.4,0.4-2.2
		c0-0.8-0.1-1.5-0.4-2.1c-0.2-0.6-0.6-1.2-1.1-1.6c-0.5-0.4-1.1-0.8-1.8-1c-0.7-0.2-1.6-0.3-2.6-0.3h-4V167.4z"/>
	<path class="st0" d="M983.5,177.3H995v4.4h-16.8V153h5.3V177.3z"/>
	<path class="st0" d="M1004.7,181.7h-5.4V153h5.4V181.7z"/>
	<path class="st0" d="M1029.3,153v4.3h-12.7v8.5h10.7v4.3h-10.7v11.7h-5.4v-28.7h18.1V153z"/>
	<path class="st0" d="M1046.3,170.6v11.2h-5.3v-11.2l-10.5-17.6h4.7c0.5,0,0.8,0.1,1.1,0.3c0.3,0.2,0.5,0.5,0.7,0.9l5.3,9.6
		c0.3,0.6,0.6,1.1,0.8,1.6c0.2,0.5,0.4,1,0.6,1.5c0.2-0.5,0.4-1,0.6-1.5c0.2-0.5,0.5-1,0.8-1.6l5.2-9.6c0.1-0.3,0.4-0.6,0.7-0.8
		c0.3-0.3,0.7-0.4,1.1-0.4h4.7L1046.3,170.6z"/>
	<path class="st0" d="M1054.7,179c0-0.4,0.1-0.8,0.2-1.2c0.2-0.4,0.4-0.7,0.6-1c0.3-0.3,0.6-0.5,1-0.6c0.4-0.2,0.8-0.2,1.2-0.2
		s0.8,0.1,1.2,0.2c0.4,0.2,0.7,0.4,1,0.6c0.3,0.2,0.5,0.6,0.6,1c0.2,0.4,0.2,0.8,0.2,1.2s-0.1,0.8-0.2,1.2c-0.2,0.4-0.4,0.7-0.6,0.9
		c-0.3,0.3-0.6,0.5-1,0.6c-0.4,0.2-0.8,0.2-1.2,0.2s-0.8-0.1-1.2-0.2c-0.4-0.2-0.7-0.4-1-0.6c-0.3-0.3-0.5-0.6-0.6-0.9
		C1054.8,179.8,1054.7,179.4,1054.7,179z"/>
	<path class="st1" d="M1093,153v4.4h-8.6v24.3h-5.4v-24.3h-8.7V153C1070.3,153,1093,153,1093,153z"/>
	<path class="st1" d="M1101.9,170.5v11.2h-5.3V153h8.8c2,0,3.6,0.2,5,0.6c1.4,0.4,2.5,1,3.4,1.7s1.5,1.6,2,2.6
		c0.4,1,0.6,2.1,0.6,3.3c0,1-0.1,1.9-0.4,2.7c-0.3,0.9-0.7,1.6-1.2,2.3s-1.2,1.3-2,1.8c-0.8,0.5-1.7,1-2.7,1.3
		c0.7,0.4,1.3,0.9,1.7,1.6l7.2,10.6h-4.8c-0.5,0-0.9-0.1-1.2-0.3s-0.6-0.5-0.8-0.8l-6-9.2c-0.2-0.3-0.5-0.6-0.7-0.7
		c-0.3-0.1-0.7-0.2-1.2-0.2h-2.4V170.5z M1101.9,166.7h3.3c1,0,1.9-0.1,2.6-0.4s1.4-0.6,1.8-1c0.5-0.4,0.8-1,1.1-1.6
		c0.2-0.6,0.4-1.3,0.4-2c0-1.5-0.5-2.6-1.4-3.4c-1-0.8-2.4-1.2-4.4-1.2h-3.4L1101.9,166.7L1101.9,166.7z"/>
	<path class="st1" d="M1147.7,181.7h-4.1c-0.5,0-0.8-0.1-1.1-0.3c-0.3-0.2-0.5-0.5-0.6-0.9l-2.1-5.9h-11.9l-2.1,5.9
		c-0.1,0.3-0.3,0.6-0.6,0.8c-0.3,0.3-0.7,0.4-1.1,0.4h-4.2l11.3-28.7h5.5L1147.7,181.7z M1129.1,170.9h9.2l-3.5-9.6
		c-0.2-0.4-0.3-0.9-0.5-1.5c-0.2-0.6-0.4-1.2-0.6-1.9c-0.2,0.7-0.4,1.3-0.5,1.9c-0.2,0.6-0.4,1.1-0.5,1.5L1129.1,170.9z"/>
	<path class="st1" d="M1154.1,153c0.2,0,0.3,0.1,0.4,0.1c0.1,0.1,0.2,0.1,0.4,0.3c0.1,0.1,0.3,0.3,0.4,0.4l15.1,19.2
		c-0.1-0.5-0.1-0.9-0.1-1.4c0-0.4,0-0.9,0-1.2v-17.5h4.7v28.7h-2.8c-0.4,0-0.8-0.1-1.1-0.2c-0.3-0.1-0.5-0.4-0.8-0.7l-15-19.1
		c0,0.4,0.1,0.8,0.1,1.3c0,0.4,0,0.8,0,1.1v17.6h-4.7v-28.7h2.8C1153.7,153,1153.9,153,1154.1,153z"/>
	<path class="st1" d="M1196.1,158.2c-0.1,0.3-0.3,0.5-0.5,0.6c-0.2,0.1-0.4,0.2-0.7,0.2c-0.3,0-0.6-0.1-0.9-0.3
		c-0.3-0.2-0.7-0.4-1.2-0.7s-1-0.5-1.6-0.7s-1.3-0.3-2.1-0.3c-0.7,0-1.4,0.1-1.9,0.3s-1,0.4-1.4,0.7c-0.4,0.3-0.7,0.7-0.8,1.1
		c-0.2,0.4-0.3,0.9-0.3,1.5c0,0.7,0.2,1.2,0.6,1.7c0.4,0.4,0.9,0.8,1.5,1.2c0.6,0.3,1.3,0.6,2.1,0.9s1.6,0.5,2.4,0.8
		c0.8,0.3,1.6,0.6,2.4,1c0.8,0.4,1.5,0.9,2.1,1.4c0.6,0.6,1.1,1.3,1.5,2.1c0.4,0.8,0.6,1.8,0.6,3c0,1.3-0.2,2.5-0.7,3.6
		c-0.4,1.1-1.1,2.1-1.9,3c-0.9,0.8-1.9,1.5-3.1,2c-1.2,0.5-2.6,0.7-4.2,0.7c-0.9,0-1.8-0.1-2.7-0.3c-0.9-0.2-1.7-0.4-2.6-0.8
		c-0.8-0.3-1.6-0.7-2.3-1.2s-1.3-1-1.9-1.6l1.5-2.6c0.1-0.2,0.3-0.3,0.5-0.5s0.4-0.2,0.7-0.2c0.3,0,0.7,0.1,1.1,0.4
		c0.4,0.3,0.8,0.6,1.4,0.9c0.5,0.3,1.1,0.6,1.8,0.9c0.7,0.3,1.6,0.4,2.6,0.4c1.5,0,2.7-0.4,3.5-1.1c0.8-0.7,1.3-1.8,1.3-3.1
		c0-0.8-0.2-1.4-0.6-1.8c-0.4-0.5-0.9-0.9-1.5-1.2c-0.6-0.3-1.3-0.6-2.1-0.8c-0.8-0.2-1.6-0.5-2.4-0.7c-0.8-0.3-1.6-0.6-2.4-1
		c-0.8-0.4-1.5-0.9-2.1-1.4c-0.6-0.6-1.1-1.3-1.5-2.2c-0.4-0.9-0.6-2-0.6-3.3c0-1,0.2-2.1,0.6-3.1c0.4-1,1-1.9,1.8-2.6
		c0.8-0.8,1.8-1.4,3-1.8c1.2-0.5,2.5-0.7,4-0.7c1.7,0,3.3,0.3,4.7,0.8c1.4,0.5,2.6,1.3,3.7,2.2L1196.1,158.2z"/>
	<path class="st1" d="M1220.1,153v4.3h-12.7v8.5h10.7v4.3h-10.7v11.7h-5.4v-28.7h18.1V153z"/>
	<path class="st1" d="M1251.9,167.4c0,2.1-0.4,4.1-1.1,5.9s-1.7,3.3-3,4.7c-1.3,1.3-2.8,2.3-4.6,3.1c-1.8,0.7-3.8,1.1-5.9,1.1
		c-2.2,0-4.2-0.4-6-1.1c-1.8-0.7-3.3-1.8-4.6-3.1s-2.3-2.9-3-4.7s-1.1-3.7-1.1-5.9c0-2.1,0.4-4.1,1.1-5.9c0.7-1.8,1.7-3.3,3-4.7
		c1.3-1.3,2.8-2.3,4.6-3.1c1.8-0.7,3.8-1.1,6-1.1s4.2,0.4,5.9,1.1c1.8,0.7,3.3,1.8,4.6,3.1c1.3,1.3,2.3,2.9,3,4.6
		C1251.5,163.3,1251.9,165.3,1251.9,167.4z M1246.4,167.4c0-1.6-0.2-3-0.6-4.2c-0.4-1.3-1-2.3-1.8-3.2c-0.8-0.9-1.7-1.5-2.9-2
		c-1.1-0.5-2.4-0.7-3.8-0.7c-1.4,0-2.7,0.2-3.8,0.7c-1.1,0.5-2.1,1.1-2.9,2c-0.8,0.9-1.4,1.9-1.8,3.2c-0.4,1.3-0.6,2.7-0.6,4.2
		c0,1.6,0.2,3,0.6,4.2c0.4,1.3,1,2.3,1.8,3.2c0.8,0.9,1.7,1.5,2.9,2c1.1,0.5,2.4,0.7,3.8,0.7c1.4,0,2.7-0.2,3.8-0.7
		c1.1-0.5,2.1-1.1,2.9-2s1.4-1.9,1.8-3.2S1246.4,168.9,1246.4,167.4z"/>
	<path class="st1" d="M1261.6,170.5v11.2h-5.3V153h8.8c2,0,3.6,0.2,5,0.6c1.4,0.4,2.5,1,3.4,1.7s1.5,1.6,2,2.6
		c0.4,1,0.6,2.1,0.6,3.3c0,1-0.1,1.9-0.4,2.7c-0.3,0.8-0.7,1.6-1.2,2.3s-1.2,1.3-2,1.8c-0.8,0.5-1.7,1-2.7,1.3
		c0.7,0.4,1.3,0.9,1.7,1.6l7.2,10.6h-4.8c-0.5,0-0.9-0.1-1.2-0.3s-0.6-0.5-0.8-0.8l-6-9.2c-0.2-0.3-0.5-0.6-0.7-0.7
		c-0.3-0.1-0.7-0.2-1.2-0.2h-2.4V170.5z M1261.6,166.7h3.3c1,0,1.9-0.1,2.6-0.4s1.4-0.6,1.8-1c0.5-0.4,0.8-1,1.1-1.6
		c0.2-0.6,0.4-1.3,0.4-2c0-1.5-0.5-2.6-1.4-3.4c-1-0.8-2.4-1.2-4.4-1.2h-3.4L1261.6,166.7L1261.6,166.7z"/>
	<path class="st1" d="M1297.2,171.1c0.2,0.5,0.4,0.9,0.6,1.4c0.2-0.5,0.4-0.9,0.6-1.4c0.2-0.5,0.4-0.9,0.6-1.3l8.5-15.9
		c0.1-0.2,0.2-0.4,0.3-0.5c0.1-0.1,0.2-0.2,0.4-0.3c0.1-0.1,0.3-0.1,0.5-0.1s0.4,0,0.6,0h4v28.7h-4.7v-18.6c0-0.3,0-0.7,0-1.1
		c0-0.4,0-0.8,0.1-1.3L1300,177c-0.2,0.4-0.5,0.7-0.8,0.9c-0.3,0.2-0.7,0.3-1.1,0.3h-0.7c-0.4,0-0.8-0.1-1.1-0.3s-0.6-0.5-0.8-0.9
		l-8.8-16.3c0.1,0.4,0.1,0.9,0.1,1.3c0,0.4,0,0.8,0,1.2v18.6h-4.7v-28.7h4c0.2,0,0.4,0,0.6,0s0.3,0,0.5,0.1c0.1,0.1,0.3,0.1,0.4,0.3
		c0.1,0.1,0.2,0.3,0.3,0.5l8.6,16C1296.8,170.2,1297,170.7,1297.2,171.1z"/>
	<path class="st1" d="M1317.6,179c0-0.4,0.1-0.8,0.2-1.2c0.2-0.4,0.4-0.7,0.6-1c0.3-0.3,0.6-0.5,1-0.6c0.4-0.2,0.8-0.2,1.2-0.2
		s0.8,0.1,1.2,0.2c0.4,0.2,0.7,0.4,1,0.6c0.3,0.3,0.5,0.6,0.6,1c0.2,0.4,0.2,0.8,0.2,1.2s-0.1,0.8-0.2,1.2c-0.2,0.4-0.4,0.7-0.6,0.9
		c-0.3,0.3-0.6,0.5-1,0.6c-0.4,0.2-0.8,0.2-1.2,0.2s-0.8-0.1-1.2-0.2c-0.4-0.2-0.7-0.4-1-0.6c-0.3-0.3-0.5-0.6-0.6-0.9
		C1317.7,179.8,1317.6,179.4,1317.6,179z"/>
	<path class="st2" d="M1360.9,181.7h-4.1c-0.5,0-0.8-0.1-1.1-0.3s-0.5-0.5-0.6-0.9l-2.1-5.9h-12l-2.1,5.9c-0.1,0.3-0.3,0.6-0.6,0.8
		c-0.3,0.3-0.7,0.4-1.1,0.4h-4.2l11.3-28.7h5.5L1360.9,181.7z M1342.3,170.9h9.2l-3.5-9.6c-0.2-0.4-0.3-0.9-0.5-1.5
		c-0.2-0.6-0.4-1.2-0.6-1.9c-0.2,0.7-0.4,1.3-0.5,1.9c-0.2,0.6-0.4,1.1-0.5,1.5L1342.3,170.9z"/>
	<path class="st2" d="M1382.6,174.9c0.3,0,0.5,0.1,0.8,0.3l2.1,2.3c-1.2,1.4-2.6,2.5-4.3,3.3s-3.7,1.2-6.1,1.2c-2.1,0-4-0.4-5.8-1.1
		c-1.7-0.7-3.2-1.7-4.4-3c-1.2-1.3-2.1-2.8-2.8-4.6c-0.6-1.8-1-3.8-1-5.9c0-2.2,0.4-4.1,1.1-5.9s1.7-3.3,3-4.6
		c1.3-1.3,2.9-2.3,4.7-3c1.8-0.7,3.8-1.1,6-1.1c2.1,0,4,0.3,5.6,1c1.6,0.7,3,1.6,4.1,2.7l-1.8,2.5c-0.1,0.2-0.2,0.3-0.4,0.4
		c-0.2,0.1-0.4,0.2-0.7,0.2c-0.3,0-0.6-0.1-0.9-0.4c-0.3-0.2-0.7-0.5-1.2-0.8s-1.1-0.5-1.9-0.8c-0.7-0.2-1.7-0.4-2.9-0.4
		c-1.4,0-2.6,0.2-3.7,0.7c-1.1,0.5-2.1,1.1-2.9,2c-0.8,0.9-1.5,1.9-1.9,3.2c-0.5,1.3-0.7,2.7-0.7,4.2c0,1.6,0.2,3.1,0.7,4.3
		c0.5,1.3,1.1,2.3,1.9,3.2s1.7,1.5,2.8,2s2.2,0.7,3.4,0.7c0.7,0,1.4,0,2-0.1s1.1-0.2,1.6-0.4s1-0.4,1.4-0.7s0.9-0.6,1.3-1
		c0.1-0.1,0.3-0.2,0.4-0.3C1382.3,175,1382.4,174.9,1382.6,174.9z"/>
	<path class="st2" d="M1409.3,174.9c0.3,0,0.5,0.1,0.8,0.3l2.1,2.3c-1.2,1.4-2.6,2.5-4.3,3.3c-1.7,0.8-3.7,1.2-6.1,1.2
		c-2.1,0-4-0.4-5.8-1.1c-1.7-0.7-3.2-1.7-4.4-3s-2.1-2.8-2.8-4.6c-0.6-1.8-1-3.8-1-5.9c0-2.2,0.4-4.1,1.1-5.9c0.7-1.8,1.7-3.3,3-4.6
		c1.3-1.3,2.9-2.3,4.7-3s3.8-1.1,6-1.1c2.1,0,4,0.3,5.6,1s3,1.6,4.1,2.7l-1.8,2.5c-0.1,0.2-0.2,0.3-0.4,0.4
		c-0.2,0.1-0.4,0.2-0.7,0.2s-0.6-0.1-0.9-0.4c-0.3-0.2-0.7-0.5-1.2-0.8s-1.1-0.5-1.9-0.8c-0.7-0.2-1.7-0.4-2.9-0.4
		c-1.4,0-2.6,0.2-3.7,0.7s-2.1,1.1-2.9,2c-0.8,0.9-1.5,1.9-1.9,3.2c-0.5,1.3-0.7,2.7-0.7,4.2c0,1.6,0.2,3.1,0.7,4.3
		c0.5,1.3,1.1,2.3,1.9,3.2c0.8,0.9,1.7,1.5,2.8,2c1.1,0.5,2.2,0.7,3.4,0.7c0.7,0,1.4,0,2-0.1c0.6-0.1,1.1-0.2,1.6-0.4s1-0.4,1.4-0.7
		c0.4-0.3,0.9-0.6,1.3-1c0.1-0.1,0.3-0.2,0.4-0.3C1408.9,175,1409.1,174.9,1409.3,174.9z"/>
	<path class="st2" d="M1434.3,153v4.3h-12.7v8h10v4.1h-10v8.1h12.7v4.3h-18.1v-28.7h18.1V153z"/>
	<path class="st2" d="M1444.2,177.3h11.5v4.4h-16.8V153h5.3V177.3z"/>
	<path class="st2" d="M1477.6,153v4.3h-12.7v8h10v4.1h-10v8.1h12.7v4.3h-18.1v-28.7h18.1V153z"/>
	<path class="st2" d="M1487.7,170.5v11.2h-5.3V153h8.8c2,0,3.6,0.2,5,0.6c1.4,0.4,2.5,1,3.4,1.7c0.9,0.7,1.5,1.6,2,2.6
		c0.4,1,0.6,2.1,0.6,3.3c0,1-0.1,1.9-0.4,2.7c-0.3,0.8-0.7,1.6-1.2,2.3s-1.2,1.3-2,1.8s-1.7,1-2.7,1.3c0.7,0.4,1.3,0.9,1.7,1.6
		l7.2,10.6h-4.8c-0.5,0-0.9-0.1-1.2-0.3c-0.3-0.2-0.6-0.5-0.8-0.8l-6-9.2c-0.2-0.3-0.5-0.6-0.7-0.7c-0.3-0.1-0.7-0.2-1.2-0.2h-2.4
		V170.5z M1487.7,166.7h3.3c1,0,1.9-0.1,2.6-0.4c0.7-0.3,1.4-0.6,1.8-1c0.5-0.4,0.8-1,1.1-1.6c0.2-0.6,0.4-1.3,0.4-2
		c0-1.5-0.5-2.6-1.4-3.4c-1-0.8-2.4-1.2-4.4-1.2h-3.4V166.7L1487.7,166.7z"/>
	<path class="st2" d="M1533.5,181.7h-4.1c-0.5,0-0.8-0.1-1.1-0.3s-0.5-0.5-0.6-0.9l-2.1-5.9h-11.9l-2.1,5.9
		c-0.1,0.3-0.3,0.6-0.6,0.8c-0.3,0.3-0.7,0.4-1.1,0.4h-4.2L1517,153h5.5L1533.5,181.7z M1514.9,170.9h9.2l-3.5-9.6
		c-0.2-0.4-0.3-0.9-0.5-1.5c-0.2-0.6-0.4-1.2-0.6-1.9c-0.2,0.7-0.4,1.3-0.5,1.9c-0.2,0.6-0.4,1.1-0.5,1.5L1514.9,170.9z"/>
	<path class="st2" d="M1553.7,153v4.4h-8.6v24.3h-5.3v-24.3h-8.7V153C1531.1,153,1553.7,153,1553.7,153z"/>
	<path class="st2" d="M1575.3,153v4.3h-12.7v8h10v4.1h-10v8.1h12.7v4.3h-18.1v-28.7h18.1V153z"/>
	<path class="st2" d="M1578.4,179c0-0.4,0.1-0.8,0.2-1.2c0.2-0.4,0.4-0.7,0.6-1c0.3-0.3,0.6-0.5,1-0.6s0.8-0.2,1.2-0.2
		c0.4,0,0.8,0.1,1.2,0.2s0.7,0.4,1,0.6c0.3,0.3,0.5,0.6,0.6,1c0.2,0.4,0.2,0.8,0.2,1.2s-0.1,0.8-0.2,1.2c-0.2,0.4-0.4,0.7-0.6,0.9
		c-0.3,0.3-0.6,0.5-1,0.6c-0.4,0.2-0.8,0.2-1.2,0.2c-0.4,0-0.8-0.1-1.2-0.2c-0.4-0.2-0.7-0.4-1-0.6c-0.3-0.3-0.5-0.6-0.6-0.9
		C1578.5,179.8,1578.4,179.4,1578.4,179z"/>
</g>
<g>
	<path class="st3" d="M593.8,73.5v11.3h-26v14.8h19.9v10.9h-19.9v15.1h26v11.3H553V73.5H593.8z"/>
	<path class="st3" d="M613.3,73.6c0.4,0.1,0.8,0.2,1.2,0.3s0.7,0.4,1,0.7c0.3,0.3,0.7,0.7,1.1,1.2l30.1,38.1
		c-0.1-1.2-0.2-2.4-0.3-3.5c-0.1-1.1-0.1-2.2-0.1-3.2V73.5h13v63.4h-7.7c-1.1,0-2.1-0.2-2.9-0.5s-1.5-1-2.3-1.9l-29.8-37.8
		c0.1,1.1,0.2,2.2,0.2,3.2c0.1,1.1,0.1,2.1,0.1,3v34h-13V73.5h7.8C612.3,73.5,612.9,73.5,613.3,73.6z"/>
	<path class="st3" d="M730.6,136.9h-11.4c-1.3,0-2.3-0.3-3.2-0.9c-0.8-0.6-1.4-1.4-1.7-2.3l-3.7-11.1h-24.1l-3.8,11.2
		c-0.3,0.8-0.9,1.5-1.7,2.2c-0.8,0.7-1.9,1-3.1,1h-11.5L691,73.6h15L730.6,136.9z M689.8,112.7h17.3l-5.8-17.4
		c-0.4-1.1-0.8-2.4-1.3-3.9s-1-3.1-1.5-4.9c-0.5,1.8-0.9,3.4-1.4,4.9s-1,2.8-1.4,3.9L689.8,112.7z"/>
	<path class="st3" d="M737.4,136.9V73.5h23.3c4.4,0,8.1,0.4,11.2,1.2c3.1,0.8,5.6,2,7.5,3.4c1.9,1.5,3.4,3.3,4.2,5.4
		c0.9,2.1,1.3,4.5,1.3,7.1c0,1.4-0.2,2.8-0.6,4.1c-0.4,1.3-1,2.6-1.9,3.7c-0.9,1.2-2,2.2-3.4,3.2c-1.4,0.9-3,1.8-4.9,2.5
		c4.2,1,7.3,2.7,9.3,4.9c2,2.3,3,5.2,3,8.8c0,2.7-0.5,5.2-1.6,7.5c-1.1,2.3-2.6,4.3-4.6,6.1c-2,1.7-4.5,3.1-7.5,4
		c-3,1-6.3,1.5-10.1,1.5C762.6,136.9,737.4,136.9,737.4,136.9z M752.1,100.2h7.7c1.6,0,3.1-0.1,4.4-0.3s2.4-0.6,3.3-1.2
		c0.9-0.6,1.6-1.4,2.1-2.4s0.7-2.3,0.7-3.8s-0.2-2.8-0.6-3.8c-0.4-1-1-1.8-1.7-2.4s-1.8-1-3-1.3c-1.2-0.3-2.6-0.4-4.3-0.4h-8.6
		V100.2L752.1,100.2z M752.1,110v15.8h10.4c1.9,0,3.5-0.2,4.8-0.7c1.2-0.5,2.2-1.1,2.9-1.9s1.2-1.7,1.4-2.7c0.3-1,0.4-2,0.4-3
		c0-1.2-0.2-2.2-0.5-3.1c-0.3-0.9-0.8-1.7-1.6-2.4c-0.7-0.6-1.7-1.1-2.9-1.5c-1.2-0.3-2.8-0.5-4.6-0.5
		C762.4,110,752.1,110,752.1,110z"/>
	<path class="st3" d="M811,125.2h23.5V137h-38.2V73.5H811V125.2z"/>
	<path class="st3" d="M859.3,136.9h-14.8V73.5h14.8V136.9z"/>
	<path class="st3" d="M882.2,73.6c0.4,0.1,0.8,0.2,1.2,0.3s0.7,0.4,1,0.7c0.3,0.3,0.7,0.7,1.1,1.2l30.1,38.1
		c-0.1-1.2-0.2-2.4-0.3-3.5s-0.1-2.2-0.1-3.2V73.5h13v63.4h-7.7c-1.1,0-2.1-0.2-2.9-0.5s-1.5-1-2.3-1.9l-29.9-37.8
		c0.1,1.1,0.2,2.2,0.2,3.2c0.1,1.1,0.1,2.1,0.1,3v34h-13V73.5h7.8C881.2,73.5,881.8,73.5,882.2,73.6z"/>
	<path class="st3" d="M970.3,126.3c2,0,3.8-0.2,5.4-0.5c1.6-0.3,3-0.8,4.4-1.4v-9.6h-6.3c-0.9,0-1.7-0.2-2.2-0.7s-0.8-1.1-0.8-1.9
		v-8.1h22.6v26.7c-1.6,1.2-3.3,2.2-5.1,3.1s-3.6,1.6-5.6,2.1c-2,0.6-4.1,1-6.4,1.2c-2.2,0.3-4.7,0.4-7.2,0.4
		c-4.6,0-8.9-0.8-12.9-2.5c-3.9-1.6-7.4-3.9-10.3-6.8c-2.9-2.9-5.2-6.3-6.8-10.3s-2.5-8.3-2.5-12.9c0-4.7,0.8-9.1,2.4-13
		c1.6-4,3.8-7.4,6.7-10.3c2.9-2.9,6.4-5.1,10.6-6.7c4.1-1.6,8.8-2.4,13.9-2.4c2.6,0,5.1,0.2,7.4,0.7c2.3,0.4,4.5,1,6.4,1.8
		c2,0.8,3.8,1.7,5.4,2.7c1.6,1,3.1,2.2,4.4,3.4l-4.3,6.5c-0.4,0.6-0.9,1.1-1.5,1.4c-0.6,0.3-1.2,0.5-1.9,0.5c-0.9,0-1.8-0.3-2.7-0.9
		c-1.2-0.7-2.3-1.3-3.3-1.8s-2.1-0.9-3.2-1.2c-1.1-0.3-2.2-0.6-3.4-0.7c-1.2-0.1-2.5-0.2-4-0.2c-2.8,0-5.2,0.5-7.4,1.5
		c-2.2,1-4.1,2.3-5.6,4.1c-1.6,1.8-2.8,3.9-3.6,6.4c-0.8,2.5-1.3,5.2-1.3,8.3c0,3.4,0.5,6.4,1.4,9c0.9,2.6,2.2,4.8,3.9,6.6
		c1.6,1.8,3.6,3.2,5.8,4.1C965.1,125.8,967.6,126.3,970.3,126.3z"/>
	<path class="st3" d="M1068.8,73.5v11.7h-17.9V137h-14.7V85.2h-17.9V73.5H1068.8z"/>
	<path class="st3" d="M1132,136.9h-14.8v-26.8h-25.8v26.8h-14.8V73.5h14.8V100h25.8V73.5h14.8V136.9z"/>
	<path class="st3" d="M1185,73.5v11.3h-26v14.8h19.9v10.9H1159v15.1h26v11.3h-40.8V73.5H1185z"/>
	<path class="st3" d="M1271.2,105.2c0,4.6-0.8,8.8-2.4,12.7c-1.6,3.9-3.8,7.2-6.7,10.1c-2.9,2.9-6.3,5-10.4,6.6
		c-4,1.6-8.5,2.4-13.5,2.4h-24.6V73.5h24.6c4.9,0,9.4,0.8,13.5,2.4c4,1.6,7.5,3.8,10.4,6.6c2.9,2.8,5.1,6.2,6.7,10
		C1270.4,96.4,1271.2,100.6,1271.2,105.2z M1256.2,105.2c0-3.1-0.4-6-1.2-8.5s-2-4.7-3.5-6.4c-1.5-1.8-3.4-3.1-5.6-4
		c-2.2-0.9-4.7-1.4-7.5-1.4h-9.8v40.8h9.8c2.8,0,5.3-0.5,7.5-1.4s4.1-2.3,5.6-4c1.5-1.8,2.7-3.9,3.5-6.4
		C1255.7,111.2,1256.2,108.4,1256.2,105.2z"/>
	<path class="st3" d="M1296.1,136.9h-14.8V73.5h14.8V136.9z"/>
	<path class="st3" d="M1339.5,126.3c2,0,3.8-0.2,5.4-0.5s3-0.8,4.4-1.4v-9.6h-6.3c-0.9,0-1.7-0.2-2.2-0.7s-0.8-1.1-0.8-1.9v-8.1
		h22.6v26.7c-1.6,1.2-3.3,2.2-5.1,3.1c-1.8,0.9-3.6,1.6-5.6,2.1c-2,0.6-4.1,1-6.4,1.2c-2.2,0.3-4.7,0.4-7.2,0.4
		c-4.6,0-8.9-0.8-12.9-2.5c-3.9-1.6-7.4-3.9-10.3-6.8c-2.9-2.9-5.2-6.3-6.8-10.3s-2.5-8.3-2.5-12.9c0-4.7,0.8-9.1,2.4-13
		c1.6-4,3.8-7.4,6.7-10.3c2.9-2.9,6.4-5.1,10.6-6.7c4.1-1.6,8.8-2.4,13.9-2.4c2.6,0,5.1,0.2,7.4,0.7c2.3,0.4,4.5,1,6.4,1.8
		c2,0.8,3.8,1.7,5.4,2.7c1.6,1,3.1,2.2,4.4,3.4l-4.3,6.5c-0.4,0.6-0.9,1.1-1.5,1.4c-0.6,0.3-1.2,0.5-1.9,0.5c-0.9,0-1.8-0.3-2.7-0.9
		c-1.2-0.7-2.3-1.3-3.3-1.8s-2.1-0.9-3.2-1.2c-1.1-0.3-2.2-0.6-3.4-0.7c-1.2-0.1-2.5-0.2-4-0.2c-2.8,0-5.2,0.5-7.4,1.5
		c-2.2,1-4.1,2.3-5.6,4.1c-1.6,1.8-2.8,3.9-3.6,6.4c-0.8,2.5-1.3,5.2-1.3,8.3c0,3.4,0.5,6.4,1.4,9c0.9,2.6,2.2,4.8,3.9,6.6
		c1.6,1.8,3.6,3.2,5.8,4.1C1334.4,125.8,1336.8,126.3,1339.5,126.3z"/>
	<path class="st3" d="M1389.5,136.9h-14.8V73.5h14.8V136.9z"/>
	<path class="st3" d="M1449,73.5v11.7h-17.9V137h-14.7V85.2h-17.9V73.5H1449z"/>
	<path class="st3" d="M1508.9,136.9h-11.4c-1.3,0-2.3-0.3-3.2-0.9c-0.8-0.6-1.4-1.4-1.7-2.3l-3.7-11.1h-24.1l-3.8,11.2
		c-0.3,0.8-0.9,1.5-1.7,2.2c-0.8,0.7-1.9,1-3.1,1h-11.5l24.6-63.4h15.1L1508.9,136.9z M1468.2,112.7h17.3l-5.8-17.4
		c-0.4-1.1-0.8-2.4-1.3-3.9s-1-3.1-1.5-4.9c-0.5,1.8-0.9,3.4-1.4,4.9s-1,2.8-1.4,3.9L1468.2,112.7z"/>
	<path class="st3" d="M1530.5,125.2h23.5V137h-38.2V73.5h14.7V125.2z"/>
	<path class="st3" d="M1576.5,73.5h12.4c1.3,0,2.3,0.3,3.2,0.9c0.9,0.6,1.4,1.3,1.7,2.3l8.7,33.1c0.3,1.1,0.6,2.2,0.9,3.4
		s0.5,2.5,0.7,3.8c0.3-1.4,0.6-2.6,1-3.9c0.3-1.2,0.7-2.3,1-3.4l10.3-33.1c0.3-0.8,0.8-1.5,1.7-2.2c0.9-0.7,1.9-1,3.1-1h4.4
		c1.3,0,2.3,0.3,3.2,0.8c0.8,0.6,1.4,1.3,1.7,2.3l10.2,33.1c0.3,1,0.7,2.1,1,3.2s0.7,2.4,0.9,3.7c0.2-1.3,0.5-2.5,0.7-3.7
		s0.5-2.2,0.8-3.3l8.7-33.1c0.2-0.8,0.8-1.6,1.7-2.2c0.9-0.6,1.9-1,3.1-1h11.6l-19.6,63.4H1636l-11.9-39.3c-0.2-0.6-0.4-1.3-0.6-2
		c-0.2-0.7-0.4-1.5-0.6-2.3c-0.2,0.8-0.4,1.6-0.6,2.3c-0.2,0.7-0.4,1.4-0.6,2l-12.1,39.3h-13.3L1576.5,73.5z"/>
	<path class="st3" d="M1738.9,105.2c0,4.6-0.8,8.9-2.4,12.8c-1.6,3.9-3.8,7.4-6.7,10.3c-2.9,2.9-6.3,5.2-10.4,6.9
		c-4,1.7-8.5,2.5-13.5,2.5c-4.9,0-9.4-0.8-13.5-2.5s-7.5-3.9-10.4-6.9c-2.9-2.9-5.1-6.3-6.7-10.3c-1.6-3.9-2.4-8.2-2.4-12.8
		s0.8-8.9,2.4-12.8c1.6-3.9,3.8-7.4,6.7-10.3c2.9-2.9,6.4-5.2,10.4-6.8c4.1-1.7,8.6-2.5,13.5-2.5s9.4,0.8,13.5,2.5
		c4,1.7,7.5,4,10.4,6.9s5.1,6.3,6.7,10.3C1738.1,96.4,1738.9,100.6,1738.9,105.2z M1723.8,105.2c0-3.1-0.4-6-1.2-8.5
		c-0.8-2.5-2-4.6-3.5-6.4c-1.5-1.7-3.4-3.1-5.6-4s-4.7-1.4-7.5-1.4s-5.4,0.5-7.6,1.4s-4.1,2.3-5.6,4c-1.5,1.7-2.7,3.9-3.5,6.4
		s-1.2,5.3-1.2,8.5s0.4,6,1.2,8.5c0.8,2.5,2,4.6,3.5,6.4c1.5,1.7,3.4,3.1,5.6,4s4.8,1.4,7.6,1.4c2.8,0,5.3-0.5,7.5-1.4
		s4.1-2.2,5.6-4c1.5-1.7,2.7-3.9,3.5-6.4C1723.4,111.2,1723.8,108.4,1723.8,105.2z"/>
	<path class="st3" d="M1762.4,113.5V137h-14.7V73.5h20.6c4.6,0,8.5,0.5,11.7,1.4s5.9,2.3,7.9,3.9c2,1.7,3.5,3.7,4.5,6
		c0.9,2.3,1.4,4.8,1.4,7.5c0,2.1-0.3,4-0.8,5.8c-0.6,1.8-1.4,3.5-2.5,5.1c-1.1,1.6-2.4,2.9-4,4.2c-1.6,1.2-3.4,2.2-5.5,3
		c1,0.5,1.9,1.1,2.8,1.8c0.9,0.7,1.6,1.6,2.2,2.7l13.5,22.1h-13.3c-2.5,0-4.2-0.9-5.3-2.8l-10.5-18.4c-0.5-0.8-1-1.4-1.6-1.7
		c-0.6-0.3-1.5-0.5-2.6-0.5L1762.4,113.5L1762.4,113.5z M1762.4,103.3h5.9c2,0,3.7-0.3,5.1-0.8s2.6-1.2,3.5-2.1c0.9-0.9,1.6-2,2-3.2
		c0.4-1.2,0.6-2.5,0.6-3.9c0-2.8-0.9-5-2.7-6.5c-1.8-1.6-4.6-2.4-8.4-2.4h-5.9L1762.4,103.3L1762.4,103.3z"/>
	<path class="st3" d="M1822.1,125.2h23.5V137h-38.2V73.5h14.7V125.2z"/>
	<path class="st3" d="M1911.8,105.2c0,4.6-0.8,8.8-2.4,12.7c-1.6,3.9-3.8,7.2-6.7,10.1c-2.9,2.8-6.3,5-10.4,6.6
		c-4,1.6-8.5,2.4-13.5,2.4h-24.6V73.5h24.6c4.9,0,9.4,0.8,13.5,2.4c4,1.6,7.5,3.8,10.4,6.6c2.9,2.8,5.1,6.2,6.7,10
		C1911,96.3,1911.8,100.6,1911.8,105.2z M1896.8,105.2c0-3.1-0.4-6-1.2-8.5c-0.8-2.5-2-4.7-3.5-6.4c-1.5-1.8-3.4-3.1-5.6-4
		s-4.7-1.4-7.5-1.4h-9.8v40.8h9.8c2.8,0,5.3-0.5,7.5-1.4s4.1-2.3,5.6-4c1.5-1.8,2.7-3.9,3.5-6.4
		C1896.4,111.2,1896.8,108.4,1896.8,105.2z"/>
</g>
</svg>
