<?xml version="1.0" encoding="utf-8"?>
<!-- Generator: Adobe Illustrator 21.0.2, SVG Export Plug-In . SVG Version: 6.00 Build 0)  -->
<svg version="1.1" id="Layer_1" xmlns="http://www.w3.org/2000/svg" xmlns:xlink="http://www.w3.org/1999/xlink" x="0px" y="0px"
	 viewBox="0 0 50 50" style="enable-background:new 0 0 50 50;" xml:space="preserve">
<style type="text/css">
	.st0{fill:none;stroke:#000000;stroke-width:2;stroke-linecap:round;stroke-linejoin:round;stroke-miterlimit:10;}
</style>
<path class="st0" d="M46.7,11.3c-1.2,0.5-2.7,1-4.1,1.1c1.5-0.9,2.6-2.3,3.1-3.9c-1.3,0.8-2.9,1.4-4.5,1.8C39.9,8.7,38.1,8,36,8
	c-3.9,0-7.1,3.1-7.1,7.1c0,0.5,0.1,1.1,0.2,1.7c-5.9-0.4-11.1-3.1-14.7-7.4c-0.6,1.1-1,2.3-1,3.6c0,2.4,1.2,4.6,3.1,5.9
	c-1.2,0-2.3-0.4-3.2-0.9v0.1c0,3.5,2.4,6.3,5.7,6.9c-0.6,0.2-1.2,0.3-1.9,0.3c-0.4,0-0.9-0.1-1.3-0.2c0.9,2.8,3.6,4.9,6.6,5
	c-2.4,1.9-5.5,3.1-8.8,3.1c-0.5,0-1.1,0-1.8-0.1c3.1,2,6.9,3.2,10.9,3.2C35.8,36.3,43,25.5,43,16c0-0.4,0-0.6,0-1
	C44.5,14,45.6,12.7,46.7,11.3"/>
</svg>
