<?xml version="1.0" encoding="utf-8"?>
<!-- Generator: Adobe Illustrator 21.0.2, SVG Export Plug-In . SVG Version: 6.00 Build 0)  -->
<svg version="1.1" id="Layer_1" xmlns="http://www.w3.org/2000/svg" xmlns:xlink="http://www.w3.org/1999/xlink" x="0px" y="0px"
	 viewBox="0 0 50 52" style="enable-background:new 0 0 50 52;" xml:space="preserve">
<g>
	<path d="M29.9,20.2c0,1.6-0.3,2.9-0.8,4.2c-0.5,1.3-1.3,2.4-2.3,3.6c-1,1-2.1,1.6-3.6,2.3C22,30.7,20.4,31,18.8,31
		s-3.2-0.3-4.5-0.8c-1.5-0.5-2.6-1.3-3.6-2.3c-1-1-1.6-2.1-2.3-3.6C8,23,7.7,21.7,7.7,20.2c0-1.6,0.3-2.9,0.8-4.2
		c0.5-1.3,1.3-2.4,2.3-3.6c1-1,2.1-1.6,3.6-2.3c1.5-0.5,2.9-0.8,4.5-0.8s3.2,0.3,4.5,0.8c1.3,0.5,2.6,1.3,3.6,2.3s1.6,2.1,2.3,3.6
		C29.6,17.5,29.9,18.8,29.9,20.2z M24.9,20.2c0-1.1-0.2-1.8-0.5-2.9c-0.3-0.8-0.5-1.6-1.1-2.1c-0.5-0.5-1.1-1-1.8-1.3
		c-0.6-0.3-1.6-0.5-2.6-0.5c-1,0-1.6,0.2-2.6,0.5c-0.8,0.3-1.5,0.8-1.8,1.3c-0.5,0.5-1,1.3-1.1,2.1c-0.3,0.8-0.5,1.6-0.5,2.9
		c0,1.1,0.2,2.1,0.5,2.9c0.3,0.8,0.5,1.6,1.1,2.1c0.5,0.5,1.1,1,1.8,1.3C17,26.8,18,27,19,27c1,0,1.6-0.2,2.6-0.5
		c1-0.3,1.5-0.8,1.8-1.3c0.5-0.5,1-1.3,1.1-2.1C24.8,22.3,24.9,21.4,24.9,20.2z"/>
	<path d="M46.9,9.7v3.9h-6v17.3h-5V13.6h-6V9.7H46.9L46.9,9.7z"/>
</g>
</svg>
