<?xml version="1.0" encoding="utf-8"?>
<!-- Generator: Adobe Illustrator 19.2.1, SVG Export Plug-In . SVG Version: 6.00 Build 0)  -->
<svg version="1.1" id="Layer_1" xmlns="http://www.w3.org/2000/svg" xmlns:xlink="http://www.w3.org/1999/xlink" x="0px" y="0px"
	 viewBox="0 0 50 50" style="enable-background:new 0 0 50 50;" xml:space="preserve">
<style type="text/css">
	.st0{fill:none;stroke:#FFFFFF;stroke-width:2;stroke-linecap:round;stroke-linejoin:round;stroke-miterlimit:10;}
</style>
<path class="st0" d="M46.7,18.7c-1.4,0.6-3,1.1-4.6,1.2c1.7-1,2.9-2.6,3.5-4.4c-1.5,0.9-3.3,1.6-5.1,2C39.1,15.8,37,15,34.7,15
	c-4.4,0-8,3.5-8,8c0,0.6,0.1,1.2,0.2,1.9c-6.6-0.4-12.5-3.5-16.5-8.3c-0.7,1.2-1.1,2.6-1.1,4c0,2.7,1.4,5.2,3.5,6.6
	c-1.3,0-2.6-0.4-3.6-1v0.1c0,3.9,2.7,7.1,6.4,7.8c-0.7,0.2-1.4,0.3-2.1,0.3c-0.5,0-1-0.1-1.5-0.2c1,3.2,4,5.5,7.4,5.6
	c-2.7,2.1-6.2,3.5-9.9,3.5c-0.6,0-1.2,0-2-0.1c3.5,2.3,7.7,3.6,12.2,3.6c14.7,0,22.8-12.1,22.8-22.8c0-0.4,0-0.7,0-1.1
	C44.2,21.7,45.5,20.3,46.7,18.7"/>
</svg>
