<?xml version="1.0" encoding="utf-8"?>
<!-- Generator: Adobe Illustrator 19.2.1, SVG Export Plug-In . SVG Version: 6.00 Build 0)  -->
<svg version="1.1"
	 id="svg2" inkscape:export-filename="/home/matteo/Sites/add-to-homescreen/imgs/icon-152x152.png" inkscape:export-xdpi="58.799999" inkscape:export-ydpi="58.799999" inkscape:version="0.48+devel r13193 custom" sodipodi:docname="icon.svg" xmlns:cc="http://creativecommons.org/ns#" xmlns:dc="http://purl.org/dc/elements/1.1/" xmlns:inkscape="http://www.inkscape.org/namespaces/inkscape" xmlns:rdf="http://www.w3.org/1999/02/22-rdf-syntax-ns#" xmlns:sodipodi="http://sodipodi.sourceforge.net/DTD/sodipodi-0.dtd" xmlns:svg="http://www.w3.org/2000/svg"
	 xmlns="http://www.w3.org/2000/svg" xmlns:xlink="http://www.w3.org/1999/xlink" x="0px" y="0px" viewBox="0 0 300 300"
	 style="enable-background:new 0 0 300 300;" xml:space="preserve">
<style type="text/css">
	.st0{fill:#FFFFFF;}
</style>
<sodipodi:namedview  bordercolor="#666666" borderopacity="1.0" fit-margin-bottom="0" fit-margin-left="0" fit-margin-right="0" fit-margin-top="0" id="base" inkscape:current-layer="layer1" inkscape:cx="106.40376" inkscape:cy="260.41876" inkscape:document-units="px" inkscape:pageopacity="0.0" inkscape:pageshadow="2" inkscape:window-height="1080" inkscape:window-maximized="0" inkscape:window-width="1345" inkscape:window-x="534" inkscape:window-y="99" inkscape:zoom="0.7" pagecolor="#ffffff" showgrid="false">
	</sodipodi:namedview>
<rect class="st0" width="300" height="300"/>
<rect width="300" height="300"/>
<g>
	<path class="st0" d="M110,211.3c0.8,0,1.4,0,2.1-0.1c0.6-0.1,1.2-0.2,1.7-0.3c0.5-0.2,1-0.3,1.5-0.6c0.5-0.2,1-0.5,1.4-0.8v-5.9
		h-4.2c-0.1,0-0.2,0-0.3-0.1c-0.1-0.1-0.1-0.2-0.1-0.2v-0.9h6v7.8c-0.5,0.4-1.1,0.7-1.7,1c-0.6,0.3-1.2,0.5-1.9,0.8
		c-0.7,0.2-1.4,0.4-2.2,0.5c-0.8,0.1-1.6,0.2-2.5,0.2c-1.6,0-3-0.3-4.3-0.8c-1.3-0.5-2.4-1.3-3.4-2.3c-0.9-1-1.7-2.2-2.2-3.5
		c-0.5-1.4-0.8-2.9-0.8-4.6c0-1.7,0.3-3.2,0.8-4.6c0.5-1.4,1.2-2.6,2.2-3.5c0.9-1,2.1-1.7,3.5-2.3c1.4-0.5,2.9-0.8,4.6-0.8
		c0.8,0,1.6,0.1,2.3,0.2c0.7,0.1,1.4,0.3,2,0.5c0.6,0.2,1.2,0.5,1.7,0.8c0.5,0.3,1,0.7,1.5,1.1l-0.4,0.7c-0.1,0.2-0.2,0.2-0.4,0.2
		c-0.1,0-0.2,0-0.3-0.1c-0.2-0.1-0.4-0.2-0.7-0.4c-0.3-0.2-0.7-0.5-1.2-0.7c-0.5-0.2-1.1-0.5-1.9-0.7c-0.8-0.2-1.7-0.3-2.7-0.3
		c-1.4,0-2.7,0.2-3.9,0.7c-1.1,0.5-2.1,1.1-2.9,1.9c-0.8,0.8-1.4,1.9-1.9,3.1c-0.4,1.2-0.7,2.6-0.7,4.1c0,1.5,0.2,2.9,0.7,4.2
		c0.4,1.2,1.1,2.3,1.9,3.1c0.8,0.9,1.8,1.5,2.9,2C107.4,211.1,108.6,211.3,110,211.3z"/>
	<path class="st0" d="M140.2,212.4H139c-0.1,0-0.3,0-0.4-0.1c-0.1-0.1-0.2-0.2-0.2-0.3l-2.6-6.4h-10.7l-2.6,6.4
		c0,0.1-0.1,0.2-0.2,0.3c-0.1,0.1-0.2,0.1-0.4,0.1h-1.2l9-21.9h1.6L140.2,212.4z M125.5,204.4h9.8l-4.5-11.1
		c-0.1-0.2-0.1-0.4-0.2-0.6c-0.1-0.2-0.1-0.5-0.2-0.7c-0.1,0.2-0.1,0.5-0.2,0.7c-0.1,0.2-0.1,0.4-0.2,0.6L125.5,204.4z"/>
	<path class="st0" d="M154.9,206.9c0.1-0.2,0.1-0.3,0.2-0.5c0.1-0.2,0.1-0.3,0.2-0.5l8.6-15.2c0.1-0.1,0.2-0.2,0.2-0.2
		c0.1,0,0.2,0,0.3,0h1.1v21.9h-1.4v-18.7c0-0.3,0-0.6,0-0.9l-8.6,15.3c-0.1,0.3-0.4,0.4-0.6,0.4h-0.2c-0.3,0-0.5-0.1-0.6-0.4
		l-8.8-15.3c0,0.3,0,0.6,0,0.9v18.7H144v-21.9h1.1c0.1,0,0.3,0,0.3,0c0.1,0,0.2,0.1,0.3,0.2l8.8,15.2
		C154.6,206.3,154.8,206.6,154.9,206.9z"/>
	<path class="st0" d="M184.4,190.5v1.3h-11.5v8.8h9.6v1.3h-9.6v9.1h11.5v1.3h-13.1v-21.9H184.4z"/>
	<path class="st0" d="M200.1,193.1c-0.1,0.2-0.2,0.3-0.4,0.3c-0.1,0-0.3-0.1-0.5-0.3c-0.2-0.2-0.5-0.4-0.9-0.6
		c-0.4-0.2-0.8-0.4-1.4-0.6c-0.5-0.2-1.2-0.3-2-0.3s-1.5,0.1-2.1,0.3c-0.6,0.2-1.1,0.5-1.5,0.9c-0.4,0.4-0.7,0.8-0.9,1.4
		c-0.2,0.5-0.3,1.1-0.3,1.6c0,0.7,0.2,1.4,0.5,1.8c0.3,0.5,0.7,0.9,1.2,1.2c0.5,0.3,1.1,0.6,1.8,0.9s1.3,0.5,2,0.7
		c0.7,0.2,1.4,0.5,2,0.8c0.7,0.3,1.2,0.6,1.8,1c0.5,0.4,0.9,0.9,1.2,1.5c0.3,0.6,0.5,1.4,0.5,2.3c0,0.9-0.2,1.8-0.5,2.6
		c-0.3,0.8-0.8,1.5-1.4,2.1c-0.6,0.6-1.3,1.1-2.2,1.4c-0.9,0.3-1.9,0.5-3,0.5c-1.4,0-2.7-0.3-3.7-0.8c-1-0.5-2-1.2-2.7-2.1l0.4-0.7
		c0.1-0.2,0.3-0.2,0.4-0.2c0.1,0,0.2,0.1,0.4,0.2c0.1,0.1,0.3,0.3,0.5,0.5c0.2,0.2,0.5,0.4,0.7,0.6c0.3,0.2,0.6,0.4,1,0.6
		c0.4,0.2,0.8,0.3,1.3,0.5c0.5,0.1,1.1,0.2,1.7,0.2c0.9,0,1.6-0.1,2.3-0.4c0.7-0.3,1.3-0.6,1.7-1.1c0.5-0.5,0.8-1,1.1-1.6
		c0.2-0.6,0.4-1.3,0.4-2c0-0.8-0.2-1.4-0.5-1.9c-0.3-0.5-0.7-0.9-1.2-1.3c-0.5-0.3-1.1-0.6-1.8-0.8c-0.7-0.2-1.3-0.4-2-0.7
		c-0.7-0.2-1.4-0.5-2-0.7c-0.7-0.3-1.2-0.6-1.8-1c-0.5-0.4-0.9-0.9-1.2-1.6c-0.3-0.6-0.5-1.4-0.5-2.3c0-0.7,0.1-1.4,0.4-2.1
		c0.3-0.7,0.7-1.3,1.2-1.8c0.5-0.5,1.2-0.9,2-1.3c0.8-0.3,1.7-0.5,2.7-0.5c1.1,0,2.2,0.2,3.1,0.5c0.9,0.4,1.7,0.9,2.5,1.7
		L200.1,193.1z"/>
</g>
<g>
	<path class="st0" d="M138.8,80v1.4h-7.9v21.2h-1.6V81.4h-8V80H138.8z"/>
	<path class="st0" d="M160,102.6h-1.6V91.7h-14.1v10.8h-1.6V80h1.6v10.5h14.1V80h1.6V102.6z"/>
	<path class="st0" d="M179.1,80v1.4h-11.9v9.1h9.9v1.3h-9.9v9.4h11.9v1.4h-13.5V80H179.1z"/>
</g>
<g id="XMLID_81_">
	<path id="XMLID_82_" class="st0" d="M150.2,33.8L46.1,92.5V210l104.1,58.7l104-58.7V92.5L150.2,33.8z M242.8,203.5l-92.7,52.3
		l-92.7-52.3V99l92.7-52.3L242.8,99V203.5z"/>
</g>
<path class="st0" d="M210.6,110.8c-1.3,0-2.5,0.3-3.4,1c-1,0.7-1.6,1.5-1.8,2.4l-9.5,36.1c-0.3,1.1-0.6,2.3-0.8,3.6
	c-0.3,1.3-0.5,2.6-0.8,4c-0.3-1.4-0.6-2.8-1-4c-0.4-1.3-0.7-2.4-1.1-3.5L181,114.3c-0.3-1.1-1-1.9-1.9-2.5c-0.9-0.6-2.1-0.9-3.4-0.9
	h-4.8c-1.3,0-2.5,0.4-3.4,1.1c-0.9,0.7-1.5,1.5-1.8,2.4l-11.2,36.1c-0.3,1.2-0.7,2.4-1.1,3.7c-0.4,1.3-0.7,2.7-1,4.2
	c-0.2-1.5-0.4-2.9-0.7-4.2c-0.3-1.3-0.6-2.6-1-3.8l-9.5-36.1c-0.3-1-0.9-1.9-1.8-2.5c-0.7-0.5-1.5-0.7-2.4-0.9l-54.6-0.1v69.3h51.8
	l-3.5-11.2c-0.2-0.7-0.9-1.2-1.6-1.2H98.5v-16.5h26.7l-3.3-10.7c-0.2-0.7-0.9-1.2-1.6-1.2H98.5v-16.2h27.6l17.6,56.9h14.6l13.2-42.9
	c0.2-0.7,0.5-1.4,0.7-2.2c0.2-0.8,0.5-1.6,0.7-2.5c0.2,0.9,0.5,1.7,0.7,2.5c0.2,0.8,0.5,1.5,0.7,2.2l13,42.9h14.6l21.4-69.3H210.6z"
	/>
</svg>
