<?xml version="1.0" encoding="utf-8"?>
<!-- Generator: Adobe Illustrator 19.2.1, SVG Export Plug-In . SVG Version: 6.00 Build 0)  -->
<svg version="1.1" id="Layer_1" xmlns="http://www.w3.org/2000/svg" xmlns:xlink="http://www.w3.org/1999/xlink" x="0px" y="0px"
	 viewBox="0 0 197.4 222.8" style="enable-background:new 0 0 197.4 222.8;" xml:space="preserve">
<style type="text/css">
	.st0{fill:#00A4E4;}
	.st1{fill:#A05FA6;}
	.st2{fill:#00A88E;}
	.st3{fill:#8DC63F;}
	.st4{fill:#F47D20;}
</style>
<g id="XMLID_75_">
	<path id="XMLID_76_" class="st0" d="M98.7,0L0,55.7v111.5l98.7,55.7l98.6-55.7V55.7L98.7,0z M186.5,160.9l-87.9,49.6l-87.9-49.6
		v-99l87.9-49.6l87.9,49.6V160.9z"/>
</g>
<g>
	<path class="st0" d="M65.9,122.5L63.3,137h-5.3c-0.5,0-0.9-0.1-1.3-0.3c-0.4-0.2-0.8-0.5-1-0.8c-0.3-0.3-0.5-0.7-0.7-1.2
		c-0.2-0.5-0.3-0.9-0.3-1.4c0-0.1,0-0.3,0-0.4c0-0.1,0-0.3,0.1-0.4l1.8-10h-6.1L48.7,133c-0.1,0.7-0.3,1.3-0.7,1.8
		c-0.3,0.5-0.7,0.9-1.2,1.2c-0.5,0.3-1,0.6-1.5,0.7c-0.6,0.1-1.1,0.2-1.7,0.2h-5.1l2.6-14.5h-3.2c-0.9,0-1.7-0.2-2.2-0.7
		c-0.5-0.5-0.8-1.2-0.8-2.3c0-0.2,0-0.5,0-0.7c0-0.2,0.1-0.5,0.1-0.8l0.6-3.5h6.5l1.5-8.7h-7.3l0.9-4.6c0.2-1.1,0.7-2,1.4-2.5
		c0.7-0.5,1.9-0.8,3.5-0.8h2.5l1.9-10.8c0.2-1.1,0.7-2,1.7-2.7c0.9-0.6,1.9-1,3.1-1h5.2l-2.6,14.4h6.1l2.6-14.4h5.1
		c1.1,0,2,0.3,2.6,0.9c0.7,0.6,1,1.3,1,2.3c0,0.1,0,0.2,0,0.3c0,0.1,0,0.2,0,0.3l-1.9,10.7h7.1l-0.9,4.6c-0.2,1.2-0.7,2-1.4,2.5
		c-0.7,0.5-1.9,0.8-3.5,0.8h-2.3l-1.5,8.7h4c0.9,0,1.7,0.2,2.2,0.7c0.5,0.5,0.8,1.2,0.8,2.3c0,0.2,0,0.5,0,0.7
		c0,0.2-0.1,0.5-0.1,0.8l-0.6,3.5H65.9z M51.6,114.5h6.1l1.5-8.7h-6.1L51.6,114.5z"/>
	<path class="st0" d="M81.2,137V83.5h19.7c3.7,0,6.8,0.3,9.4,1c2.6,0.7,4.7,1.7,6.3,2.9c1.6,1.2,2.8,2.8,3.6,4.5
		c0.7,1.8,1.1,3.8,1.1,6c0,1.2-0.2,2.4-0.5,3.5c-0.3,1.1-0.9,2.2-1.6,3.1c-0.7,1-1.7,1.9-2.8,2.7c-1.1,0.8-2.5,1.5-4.1,2.1
		c3.5,0.9,6.1,2.2,7.8,4.2c1.7,1.9,2.5,4.4,2.5,7.4c0,2.3-0.4,4.4-1.3,6.3c-0.9,2-2.2,3.7-3.9,5.1c-1.7,1.5-3.8,2.6-6.3,3.4
		c-2.5,0.8-5.3,1.2-8.6,1.2H81.2z M93.6,106h6.5c1.4,0,2.6-0.1,3.7-0.3c1.1-0.2,2-0.5,2.8-1c0.8-0.5,1.4-1.2,1.8-2
		c0.4-0.9,0.6-1.9,0.6-3.2c0-1.3-0.2-2.3-0.5-3.2c-0.3-0.8-0.8-1.5-1.5-2c-0.7-0.5-1.5-0.9-2.5-1.1c-1-0.2-2.2-0.3-3.6-0.3h-7.3V106
		z M93.6,114.3v13.3h8.7c1.6,0,3-0.2,4-0.6c1-0.4,1.9-1,2.4-1.6c0.6-0.7,1-1.4,1.2-2.2c0.2-0.8,0.3-1.7,0.3-2.5c0-1-0.1-1.9-0.4-2.6
		s-0.7-1.4-1.3-2c-0.6-0.5-1.4-1-2.5-1.2c-1-0.3-2.3-0.4-3.9-0.4H93.6z"/>
	<path class="st0" d="M141.8,127.1h19.8v9.9h-32.2V83.5h12.4V127.1z"/>
</g>
</svg>
