<?xml version="1.0" encoding="utf-8"?>
<!-- Generator: Adobe Illustrator 19.2.1, SVG Export Plug-In . SVG Version: 6.00 Build 0)  -->
<svg version="1.1" id="Layer_1" xmlns="http://www.w3.org/2000/svg" xmlns:xlink="http://www.w3.org/1999/xlink" x="0px" y="0px"
	 viewBox="0 0 197.4 222.8" style="enable-background:new 0 0 197.4 222.8;" xml:space="preserve">
<style type="text/css">
	.st0{fill:#00A4E4;}
	.st1{fill:#A05FA6;}
	.st2{fill:#00A88E;}
	.st3{fill:#8DC63F;}
	.st4{fill:#F47D20;}
</style>
<g id="XMLID_14_">
	<path id="XMLID_15_" class="st4" d="M98.7,0L0,55.7v111.5l98.7,55.7l98.6-55.7V55.7L98.7,0z M186.5,160.9l-87.9,49.6l-87.9-49.6
		v-99l87.9-49.6l87.9,49.6V160.9z"/>
</g>
<g>
	<path class="st4" d="M55.3,122.5L52.7,137h-5.3c-0.5,0-0.9-0.1-1.3-0.3c-0.4-0.2-0.8-0.5-1-0.8c-0.3-0.3-0.5-0.7-0.7-1.2
		c-0.2-0.5-0.3-0.9-0.3-1.4c0-0.1,0-0.3,0-0.4c0-0.1,0-0.3,0.1-0.4l1.8-10h-6.1L38.1,133c-0.1,0.7-0.3,1.3-0.7,1.8
		c-0.3,0.5-0.7,0.9-1.2,1.2c-0.5,0.3-1,0.6-1.5,0.7c-0.6,0.1-1.1,0.2-1.7,0.2H28l2.6-14.5h-3.2c-0.9,0-1.7-0.2-2.2-0.7
		c-0.5-0.5-0.8-1.2-0.8-2.3c0-0.2,0-0.5,0-0.7c0-0.2,0.1-0.5,0.1-0.8l0.6-3.5h6.5l1.5-8.7h-7.3l0.9-4.6c0.2-1.1,0.7-2,1.4-2.5
		c0.7-0.5,1.9-0.8,3.5-0.8h2.5l1.9-10.8c0.2-1.1,0.7-2,1.7-2.7c0.9-0.6,1.9-1,3.1-1h5.2l-2.6,14.4h6.1l2.6-14.4h5.1
		c1.1,0,2,0.3,2.6,0.9c0.7,0.6,1,1.3,1,2.3c0,0.1,0,0.2,0,0.3c0,0.1,0,0.2,0,0.3l-1.9,10.7h7.1l-0.9,4.6c-0.2,1.2-0.7,2-1.4,2.5
		c-0.7,0.5-1.9,0.8-3.5,0.8h-2.3l-1.5,8.7h4c0.9,0,1.7,0.2,2.2,0.7c0.5,0.5,0.8,1.2,0.8,2.3c0,0.2,0,0.5,0,0.7
		c0,0.2-0.1,0.5-0.1,0.8l-0.6,3.5H55.3z M40.9,114.5H47l1.5-8.7h-6.1L40.9,114.5z"/>
	<path class="st4" d="M123.4,110.2c0,3.9-0.7,7.5-2,10.8c-1.3,3.3-3.2,6.2-5.6,8.7c-2.4,2.5-5.3,4.4-8.8,5.8
		c-3.4,1.4-7.2,2.1-11.4,2.1s-7.9-0.7-11.4-2.1c-3.4-1.4-6.4-3.3-8.8-5.8c-2.4-2.5-4.3-5.4-5.7-8.7c-1.3-3.3-2-6.9-2-10.8
		c0-3.9,0.7-7.5,2-10.8c1.3-3.3,3.2-6.2,5.7-8.7s5.4-4.4,8.8-5.8c3.4-1.4,7.2-2.1,11.4-2.1s7.9,0.7,11.4,2.1
		c3.4,1.4,6.3,3.3,8.8,5.8c2.4,2.4,4.3,5.3,5.6,8.7C122.7,102.8,123.4,106.4,123.4,110.2z M110.7,110.2c0-2.6-0.3-5-1-7.1
		c-0.7-2.1-1.7-3.9-3-5.4c-1.3-1.5-2.9-2.6-4.7-3.4s-4-1.2-6.3-1.2c-2.4,0-4.5,0.4-6.4,1.2c-1.9,0.8-3.5,1.9-4.7,3.4
		c-1.3,1.5-2.3,3.3-3,5.4c-0.7,2.1-1,4.5-1,7.1c0,2.7,0.3,5.1,1,7.2c0.7,2.1,1.7,3.9,3,5.4c1.3,1.5,2.9,2.6,4.7,3.4
		c1.9,0.8,4,1.2,6.4,1.2c2.4,0,4.5-0.4,6.3-1.2c1.9-0.8,3.4-1.9,4.7-3.4c1.3-1.5,2.3-3.3,3-5.4C110.3,115.3,110.7,112.9,110.7,110.2
		z"/>
	<path class="st4" d="M141.7,117.2V137h-12.4V83.5h17.4c3.9,0,7.2,0.4,9.9,1.2c2.7,0.8,5,1.9,6.7,3.3c1.7,1.4,3,3.1,3.8,5
		c0.8,1.9,1.2,4,1.2,6.3c0,1.7-0.2,3.4-0.7,4.9c-0.5,1.5-1.2,3-2.1,4.3c-0.9,1.3-2,2.5-3.4,3.5c-1.3,1-2.9,1.9-4.6,2.5
		c0.8,0.4,1.6,0.9,2.3,1.5c0.7,0.6,1.4,1.4,1.9,2.2l11.4,18.6h-11.2c-2.1,0-3.6-0.8-4.5-2.3l-8.9-15.5c-0.4-0.7-0.8-1.2-1.4-1.5
		s-1.3-0.4-2.2-0.4H141.7z M141.7,108.7h5c1.7,0,3.1-0.2,4.3-0.6c1.2-0.4,2.2-1,2.9-1.8s1.3-1.6,1.7-2.7c0.3-1,0.5-2.1,0.5-3.3
		c0-2.3-0.8-4.2-2.3-5.5c-1.5-1.3-3.9-2-7.1-2h-5V108.7z"/>
</g>
</svg>
