<?xml version="1.0" encoding="utf-8"?>
<!-- Generator: Adobe Illustrator 19.2.1, SVG Export Plug-In . SVG Version: 6.00 Build 0)  -->
<svg version="1.1" id="Layer_1" xmlns="http://www.w3.org/2000/svg" xmlns:xlink="http://www.w3.org/1999/xlink" x="0px" y="0px"
	 viewBox="0 0 50 52" style="enable-background:new 0 0 50 52;" xml:space="preserve">
<style type="text/css">
	.st0{fill:#FFFFFF;}
</style>
<path id="XMLID_1_" class="st0" d="M28.5,3.5L7,15.6v24.2L28.5,52L50,39.9V15.6L28.5,3.5z M47.6,38.6L28.5,49.4L9.4,38.6V16.9
	L28.5,6.1l19.1,10.8C47.6,16.9,47.6,38.6,47.6,38.6z"/>
<g>
	<path class="st0" d="M30,28.2c0,1-0.2,1.8-0.5,2.6c-0.3,0.8-0.8,1.5-1.4,2.2c-0.6,0.6-1.3,1-2.2,1.4c-0.8,0.3-1.8,0.5-2.8,0.5
		c-1,0-2-0.2-2.8-0.5c-0.9-0.3-1.6-0.8-2.2-1.4c-0.6-0.6-1-1.3-1.4-2.2c-0.3-0.9-0.5-1.7-0.5-2.6c0-1,0.2-1.8,0.5-2.6
		c0.3-0.8,0.8-1.5,1.4-2.2c0.6-0.6,1.3-1,2.2-1.4c0.9-0.3,1.8-0.5,2.8-0.5c1,0,2,0.2,2.8,0.5s1.6,0.8,2.2,1.4c0.6,0.6,1,1.3,1.4,2.2
		C29.8,26.5,30,27.3,30,28.2z M26.9,28.2c0-0.7-0.1-1.1-0.3-1.8c-0.2-0.5-0.3-1-0.7-1.3c-0.3-0.3-0.7-0.6-1.1-0.8s-1-0.3-1.6-0.3
		c-0.6,0-1,0.1-1.6,0.3c-0.5,0.2-0.9,0.5-1.1,0.8c-0.3,0.3-0.6,0.8-0.7,1.3c-0.2,0.5-0.3,1-0.3,1.8c0,0.7,0.1,1.3,0.3,1.8
		c0.2,0.5,0.3,1,0.7,1.3c0.3,0.3,0.7,0.6,1.1,0.8s1,0.3,1.6,0.3c0.6,0,1-0.1,1.6-0.3s0.9-0.5,1.1-0.8c0.3-0.3,0.6-0.8,0.7-1.3
		C26.8,29.5,26.9,28.9,26.9,28.2z"/>
	<path class="st0" d="M40.5,21.7v2.4h-3.7v10.7h-3.1V24.1H30v-2.4H40.5L40.5,21.7z"/>
</g>
</svg>
