<?xml version="1.0" encoding="utf-8"?>
<!-- Generator: Adobe Illustrator 19.2.1, SVG Export Plug-In . SVG Version: 6.00 Build 0)  -->
<svg version="1.1" id="Layer_1" xmlns="http://www.w3.org/2000/svg" xmlns:xlink="http://www.w3.org/1999/xlink" x="0px" y="0px"
	 viewBox="0 0 197.4 222.8" style="enable-background:new 0 0 197.4 222.8;" xml:space="preserve">
<style type="text/css">
	.st0{fill:#00A4E4;}
	.st1{fill:#A05FA6;}
	.st2{fill:#00A88E;}
	.st3{fill:#8DC63F;}
	.st4{fill:#F47D20;}
</style>
<g id="XMLID_46_">
	<g>
		<path id="XMLID_38_" class="st1" d="M98.7,0L0,55.7v111.5l98.7,55.7l98.6-55.7V55.7L98.7,0z M186.5,160.9l-87.9,49.6l-87.9-49.6
			v-99l87.9-49.6l87.9,49.6V160.9z"/>
	</g>
</g>
<g>
	<g>
		<path class="st1" d="M66.6,122.5L64,137h-5.3c-0.5,0-0.9-0.1-1.3-0.3c-0.4-0.2-0.8-0.5-1-0.8c-0.3-0.3-0.5-0.7-0.7-1.2
			c-0.2-0.5-0.3-0.9-0.3-1.4c0-0.1,0-0.3,0-0.4c0-0.1,0-0.3,0.1-0.4l1.8-10h-6.1L49.4,133c-0.1,0.7-0.3,1.3-0.7,1.8
			c-0.3,0.5-0.7,0.9-1.2,1.2c-0.5,0.3-1,0.6-1.5,0.7c-0.6,0.1-1.1,0.2-1.7,0.2h-5.1l2.6-14.5h-3.2c-0.9,0-1.7-0.2-2.2-0.7
			c-0.5-0.5-0.8-1.2-0.8-2.3c0-0.2,0-0.5,0-0.7c0-0.2,0.1-0.5,0.1-0.8l0.6-3.5h6.5l1.5-8.7h-7.3l0.9-4.6c0.2-1.1,0.7-2,1.4-2.5
			c0.7-0.5,1.9-0.8,3.5-0.8h2.5l1.9-10.8c0.2-1.1,0.7-2,1.7-2.7c0.9-0.6,1.9-1,3.1-1h5.2l-2.6,14.4h6.1l2.6-14.4h5.1
			c1.1,0,2,0.3,2.6,0.9c0.7,0.6,1,1.3,1,2.3c0,0.1,0,0.2,0,0.3c0,0.1,0,0.2,0,0.3l-1.9,10.7h7.1l-0.9,4.6c-0.2,1.2-0.7,2-1.4,2.5
			c-0.7,0.5-1.9,0.8-3.5,0.8h-2.3l-1.5,8.7h4c0.9,0,1.7,0.2,2.2,0.7c0.5,0.5,0.8,1.2,0.8,2.3c0,0.2,0,0.5,0,0.7
			c0,0.2-0.1,0.5-0.1,0.8l-0.6,3.5H66.6z M52.2,114.5h6.1l1.5-8.7h-6.1L52.2,114.5z"/>
		<path class="st1" d="M94.3,119.1V137H81.9V83.5h18.9c3.8,0,7,0.4,9.7,1.3c2.7,0.9,4.9,2.1,6.7,3.7c1.7,1.6,3,3.4,3.9,5.5
			c0.8,2.1,1.2,4.4,1.2,6.9c0,2.7-0.4,5.1-1.3,7.3c-0.9,2.2-2.2,4.1-3.9,5.7c-1.8,1.6-4,2.8-6.7,3.7c-2.7,0.9-5.9,1.3-9.6,1.3H94.3z
			 M94.3,109.8h6.5c3.2,0,5.6-0.8,7-2.3c1.4-1.5,2.1-3.7,2.1-6.5c0-1.2-0.2-2.3-0.6-3.3c-0.4-1-0.9-1.9-1.7-2.6
			c-0.7-0.7-1.7-1.3-2.8-1.7c-1.1-0.4-2.5-0.6-4.1-0.6h-6.5V109.8z"/>
		<path class="st1" d="M141.1,127.1H161v9.9h-32.2V83.5h12.4V127.1z"/>
	</g>
</g>
</svg>
